<svg version="1.1" id="Capa_1" xmlns="http://www.w3.org/2000/svg" xmlns:xlink="http://www.w3.org/1999/xlink" x="0" y="0" viewBox="125.2 0 586.9 856.5" xml:space="preserve"><defs><path id="SVGID_1_" d="M125.2-3.9h586.9v860.4H125.2z"/></defs><clipPath id="SVGID_2_"><use xlink:href="#SVGID_1_" overflow="visible"/></clipPath><g clip-path="url(#SVGID_2_)"><linearGradient id="SVGID_3_" gradientUnits="userSpaceOnUse" x1="-273.304" y1="285.398" x2="975.81" y2="285.398" gradientTransform="translate(125.185 .016) scale(2.0703)"><stop offset="0" stop-color="#473a8f"/><stop offset="1" stop-color="#1f1026"/></linearGradient><path fill="url(#SVGID_3_)" d="M2145.2-.7c-7.3-1.9-14.9-3-22.8-3H-343.9c-53.2 0-96.7 48.3-96.7 107.2v974.7c0 58.9 43.5 107.2 96.7 107.2h2466.5c7.9 0 15.4-1.1 22.8-3V-.7h-.2z"/><linearGradient id="SVGID_4_" gradientUnits="userSpaceOnUse" x1="-249.983" y1="285.398" x2="975.81" y2="285.398" gradientTransform="translate(125.185 .016) scale(2.0703)"><stop offset="0" stop-color="#664f9c"/><stop offset="1" stop-color="#813682"/></linearGradient><path opacity=".15" fill="url(#SVGID_4_)" d="M2145.2-.7c-7.3-1.9-14.7-3-22.4-3H-297.5c-52.2 0-94.8 48.3-94.8 107.2v974.7c0 58.9 42.6 107.2 94.8 107.2H2123c7.6 0 15.1-1.1 22.4-3V-.7h-.2z"/><linearGradient id="SVGID_5_" gradientUnits="userSpaceOnUse" x1="-210.795" y1="285.398" x2="975.7" y2="285.398" gradientTransform="translate(125.185 .016) scale(2.0703)"><stop offset="0" stop-color="#745ba3"/><stop offset="1" stop-color="#955191"/></linearGradient><path opacity=".15" fill="url(#SVGID_5_)" d="M2145.2-.7c-6.8-1.9-14.1-3-21.5-3h-2343c-50.5 0-91.9 48.3-91.9 107.2v974.7c0 58.9 41.4 107.2 91.9 107.2h2342.9c7.5 0 14.7-1.1 21.5-3l.1-1183.1z"/><g opacity=".6"><image overflow="visible" opacity=".5" width="5358" height="1638" xlink:href="D64877D9.png" transform="matrix(.4966 0 0 .6506 -488.757 34.475)"/><g opacity=".8" fill="#FFF"><path opacity=".2" d="M766.8 793.2c-2.5-6 0-12.8 5.8-15.5 5.8-2.8 12.5 0 14.9 6 2.5 6 0 12.8-5.8 15.5-5.8 2.7-12.5 0-14.9-6z"/><path d="M773.6 780.2l4.9 4.1 6.7.5-4.1 5.2-.5 6.8-5.1-4.1-6.4-.6 3.9-5.4z"/></g><linearGradient id="SVGID_6_" gradientUnits="userSpaceOnUse" x1="849.406" y1="1258.83" x2="835.112" y2="1289.596" gradientTransform="matrix(3.4588 1.9506 -1.7337 3.0742 431.612 -4624.926)"><stop offset="0" stop-color="#bedfea"/><stop offset="1" stop-color="#fff" stop-opacity="0"/></linearGradient><path opacity=".39" fill="url(#SVGID_6_)" d="M1189.7 889.8l-97.1 62.2 104.2-45.3z"/><g opacity=".8" fill="#FFF"><path opacity=".2" d="M1182.9 902.9c-2.5-6 0-12.8 5.8-15.5 5.8-2.8 12.5 0 14.9 6 2.4 6 0 12.8-5.8 15.5-5.8 2.7-12.4 0-14.9-6z"/><path d="M1189.7 889.8l5.2 4.2 6.4.7-3.9 5.2-.6 6.8-5.2-4.1-6.4-.5 3.9-5.5z"/></g><linearGradient id="SVGID_7_" gradientUnits="userSpaceOnUse" x1="935.445" y1="1172.312" x2="921.151" y2="1203.077" gradientTransform="matrix(3.4588 1.9506 -1.7337 3.0742 431.612 -4624.926)"><stop offset="0" stop-color="#bedfea"/><stop offset="1" stop-color="#fff" stop-opacity="0"/></linearGradient><path opacity=".39" fill="url(#SVGID_7_)" d="M1637.4 791.9l-97.1 62.1 104.1-45.6z"/><g opacity=".8" fill="#FFF"><path opacity=".2" d="M1630.5 804.9c-2.5-6 0-12.8 5.8-15.5 5.8-2.8 12.5 0 14.9 6 2.5 6 0 12.8-5.8 15.5-5.6 2.7-12.4-.1-14.9-6z"/><path d="M1637.4 791.9l5.1 4.1 6.4.5-3.9 5.4-.6 6.5-5-4-6.6-.6 4.1-5.1z"/></g><linearGradient id="SVGID_8_" gradientUnits="userSpaceOnUse" x1="819.312" y1="1180.77" x2="805.018" y2="1211.535" gradientTransform="matrix(3.4588 1.9506 -1.7337 3.0742 431.612 -4624.926)"><stop offset="0" stop-color="#bedfea"/><stop offset="1" stop-color="#fff" stop-opacity="0"/></linearGradient><path opacity=".39" fill="url(#SVGID_8_)" d="M1221 591.3l-97.1 62.2 104.1-45.6z"/><g opacity=".8" fill="#FFF"><path opacity=".2" d="M1214.1 604.4c-2.5-6 0-12.8 5.8-15.5s12.5 0 14.9 6c2.5 6 0 12.8-5.8 15.5s-12.3-.1-14.9-6z"/><path d="M1221 591.3l5.1 4 6.5.6-3.9 5.2-.7 6.8-5.1-4.1-6.5-.6 4-5.4z"/></g><linearGradient id="SVGID_9_" gradientUnits="userSpaceOnUse" x1="834.851" y1="1053.918" x2="820.557" y2="1084.683" gradientTransform="matrix(3.4588 1.9506 -1.7337 3.0742 431.612 -4624.926)"><stop offset="0" stop-color="#bedfea"/><stop offset="1" stop-color="#fff" stop-opacity="0"/></linearGradient><path opacity=".39" fill="url(#SVGID_9_)" d="M1494.7 231.6l-97.1 62.2 104.2-45.6z"/><g opacity=".8" fill="#FFF"><path opacity=".2" d="M1487.9 244.7c-2.5-6 0-12.8 5.8-15.5 5.8-2.8 12.5 0 14.9 6s0 12.8-5.8 15.5c-5.8 2.7-12.5-.1-14.9-6z"/><path d="M1494.7 231.6l5.2 4.2 6.4.5-3.9 5.4-.6 6.5-5.2-4-6.4-.6 3.9-5.4z"/></g><linearGradient id="SVGID_10_" gradientUnits="userSpaceOnUse" x1="958.961" y1="1088.012" x2="944.667" y2="1118.777" gradientTransform="matrix(3.4588 1.9506 -1.7337 3.0742 431.612 -4624.926)"><stop offset="0" stop-color="#bedfea"/><stop offset="1" stop-color="#fff" stop-opacity="0"/></linearGradient><path opacity=".39" fill="url(#SVGID_10_)" d="M1864.9 578.5l-97.1 62.2 104.1-45.6z"/><g opacity=".8" fill="#FFF"><path opacity=".2" d="M1858 591.6c-2.5-6 0-12.8 5.8-15.5s12.5 0 14.9 6c2.5 6 0 12.8-5.8 15.5-5.7 2.6-12.4 0-14.9-6z"/><path d="M1864.9 578.5l5.2 4.1 6.4.5-4 5.5-.6 6.5-5.2-4-6.4-.6 4-5.2z"/></g><linearGradient id="SVGID_11_" gradientUnits="userSpaceOnUse" x1="1010.497" y1="1048.769" x2="996.203" y2="1079.534" gradientTransform="matrix(3.4588 1.9506 -1.7337 3.0742 431.612 -4624.926)"><stop offset="0" stop-color="#bedfea"/><stop offset="1" stop-color="#fff" stop-opacity="0"/></linearGradient><path opacity=".39" fill="url(#SVGID_11_)" d="M2111 558.4l-97.1 62.2 104.4-45.6z"/><g opacity=".8" fill="#FFF"><path opacity=".2" d="M2104.4 571.5c-2.5-6 0-12.8 5.8-15.5 5.8-2.8 12.5 0 14.9 6 2.5 6 0 12.8-5.8 15.5-5.8 2.6-12.4 0-14.9-6z"/><path d="M2111.2 558.4l5 4.1 6.4.6-3.9 5.4-.4 6.5-5.2-4-6.4-.6 3.9-5.2z"/></g><linearGradient id="SVGID_12_" gradientUnits="userSpaceOnUse" x1="684.431" y1="1226.658" x2="670.136" y2="1257.423" gradientTransform="matrix(3.4588 1.9506 -1.7337 3.0742 431.612 -4624.926)"><stop offset="0" stop-color="#bedfea"/><stop offset="1" stop-color="#fff" stop-opacity="0"/></linearGradient><path opacity=".39" fill="url(#SVGID_12_)" d="M674.9 469.1l-97.1 62.2L681.9 486z"/><g opacity=".8" fill="#FFF"><path opacity=".2" d="M668 482.2c-2.5-6 0-12.8 5.8-15.5 5.8-2.8 12.5 0 14.9 6 2.5 6 0 12.8-5.8 15.5-5.6 2.6-12.4 0-14.9-6z"/><path d="M674.9 469.1l5.1 4.2 6.4.7-3.9 5.2-.6 6.8-5-4.1-6.4-.5 3.9-5.5z"/></g><g opacity=".8" fill="#FFF"><path opacity=".2" d="M902.1 523.5c-1.2-2.8 0-6.3 2.7-7.3 2.7-1.4 6 0 7 3 1.2 2.8 0 6.3-2.7 7.3-2.6 1-5.7-.1-7-3z"/><path d="M905.5 517.2l2.2 1.9 3.2.3-1.9 2.7-.2 3-2.5-2-3.1-.2 1.9-2.4z"/></g><g opacity=".8" fill="#FFF"><path opacity=".2" d="M1277.7 63.9c-1.2-2.8 0-6.3 2.7-7.3 2.7-1.4 6 0 7 3 1.2 2.8 0 6.3-2.7 7.3-2.6 1.4-5.7 0-7-3z"/><path d="M1281.1 58l2.4 1.8 3.1.3-2 2.5-.3 3.3-2.5-2-2.8-.3 1.8-2.6z"/></g><g opacity=".8" fill="#FFF"><path opacity=".2" d="M1814.1 1007.1c-1.2-2.8 0-6.3 2.7-7.3 2.7-1.4 6 0 7 3 1.2 2.8 0 6.3-2.7 7.3-2.6 1.1-5.7-.2-7-3z"/><path d="M1817.4 1000.8l2.5 2 3.1.3-1.8 2.4-.4 3.2-2.5-1.8-2.9-.3 1.9-2.5z"/></g><g opacity=".8" fill="#FFF"><path opacity=".2" d="M640 605.7c-1.2-2.8 0-6.3 2.7-7.3 2.7-1.4 6 0 7 3 1.2 2.8 0 6.3-2.7 7.3-2.4 1.1-5.7-.3-7-3z"/><path d="M643.4 599.5l2.4 1.9 3.2.2-1.9 2.4-.4 3.3-2.3-1.9-3.1-.3 1.9-2.4z"/></g><g opacity=".8" fill="#FFF"><path opacity=".2" d="M1510 642.9c-1.2-2.8 0-6.3 2.7-7.3 2.7-1.4 6 0 7 3 1.1 3 0 6.3-2.7 7.3-2.6 1-6-.1-7-3z"/><path d="M1513.1 636.6l2.5 1.9 3.1.3-1.9 2.7-.1 3-2.6-1.9-3.1-.3 1.9-2.4z"/></g><g opacity=".8" fill="#FFF"><path opacity=".2" d="M1953 328.3c-1.2-2.8 0-6.3 2.7-7.3 2.7-1.4 6 0 7 3 1.2 2.8 0 6.3-2.7 7.3-2.6 1.1-5.9-.3-7-3z"/><path d="M1956.2 322.1l2.5 1.8 3 .3-1.8 2.5-.2 3.2-2.5-1.9-3.1-.3 1.8-2.4z"/></g><g opacity=".8" fill="#FFF"><path opacity=".2" d="M1936.7 785.1c-1.2-2.8 0-6.3 2.7-7.3 2.7-1.1 6 0 7 3 1.2 2.8 0 6.3-2.7 7.3-2.7 1.1-5.7-.3-7-3z"/><path d="M1940 778.8l2.5 1.9 3.1.4-1.9 2.6-.4 3-2.5-1.9-2.8-.2 1.8-2.5z"/></g><g opacity=".8" fill="#FFF"><path opacity=".2" d="M1769.5 162.4c-1.2-2.8 0-6.3 2.7-7.3 2.7-1.4 6 0 7 3 1.2 2.8 0 6.3-2.7 7.3-2.8 1.4-5.8.1-7-3z"/><path d="M1772.7 156.5l2.5 1.9 2.9.3-1.8 2.4-.3 3.2-2.4-1.9-3.2-.2 2.1-2.8z"/></g><g opacity=".8" fill="#FFF"><path opacity=".2" d="M989.1 765c-1.2-2.8 0-6.3 2.7-7.3 2.7-1.4 6 0 7 3 1.2 2.8 0 6.3-2.7 7.3-2.7 1.1-5.7-.3-7-3z"/><path d="M992.4 758.7l2.3 2 3.1.3-1.8 2.6-.3 3-2.4-1.9-3.1-.2 1.8-2.5z"/></g><g opacity=".8" fill="#FFF"><path opacity=".2" d="M59.8 164.9c-1.2-2.8 0-6.3 2.7-7.3 2.7-1.4 6 0 7 3 1.2 2.8 0 6.3-2.7 7.3-2.7 1.3-6 0-7-3z"/><path d="M62.9 158.7l2.4 2.1 3.2.3-1.9 2.5-.2 3.2-2.5-1.9-3.1-.3 1.9-2.7z"/></g><g opacity=".8" fill="#FFF"><path opacity=".2" d="M-32.8 302.8c-1.2-2.8 0-6.3 2.7-7.3 2.7-1.4 6 0 7 3 1.2 2.8 0 6.3-2.7 7.3-2.6 1.1-6-.3-7-3z"/><path d="M-29.7 296.6l2.5 1.8 3.1.3-1.9 2.4-.1 3.3-2.5-1.9-3.2-.3 1.9-2.4z"/></g><g opacity=".8" fill="#FFF"><path opacity=".2" d="M146.7 406.5c-1.2-2.8 0-6.3 2.7-7.3 2.7-1.4 6 0 7 3 1.2 2.8 0 6.3-2.7 7.3s-5.9 0-7-3z"/><path d="M149.8 400.2l2.5 2.2 3.1.3-1.8 2.4-.3 3.2-2.4-2.1-3.1-.3 1.8-2.5z"/></g><g opacity=".8" fill="#FFF"><path opacity=".2" d="M1451.7 1034.8c-2.1-4.9 0-10.6 4.7-12.8 4.7-2.1 10.2 0 12.2 4.9 2.1 4.9 0 10.6-4.7 12.8-4.8 2.2-10.2-.3-12.2-4.9z"/><path d="M1457.2 1023.9l4.2 3.6 5.4.2-3.4 4.4-.4 5.4-4.1-3.3-5.4-.5 3.3-4.3z"/></g><g opacity=".8" fill="#FFF"><path opacity=".2" d="M2057.6 992.2c-2.1-4.9 0-10.6 4.7-12.8 4.7-2.1 10.2 0 12.2 4.9 2.1 4.9 0 10.6-4.7 12.8-4.7 2.1-10.1 0-12.2-4.9z"/><path d="M2063.2 981.6l4.1 3.3 5.4.5-3.3 4.4-.4 5.4-4.1-3.5-5.5-.3 3.4-4.4z"/></g><g opacity=".8" fill="#FFF"><path opacity=".2" d="M1649.5 433.6c-2.1-4.9 0-10.6 4.7-12.8 4.7-2.1 10.2 0 12.2 4.9s0 10.6-4.7 12.8c-4.7 2.1-10 0-12.2-4.9z"/><path d="M1655.2 423l4.1 3.3 5.2.5-3.1 4.4-.7 5.4-4.1-3.3-5.2-.5 3.2-4.4z"/></g><g opacity=".8" fill="#FFF"><path opacity=".2" d="M1180.2 460.7c-1.2-2.8 0-6.3 2.7-7.3 2.7-1.4 6 0 7 3 1.2 2.8 0 6.3-2.7 7.3-2.5 1.1-5.8-.2-7-3z"/><path d="M1183.5 454.5l2.5 1.9 3.1.3-1.8 2.4-.4 3.2-2.3-1.8-3.2-.3 1.9-2.4z"/></g><linearGradient id="SVGID_13_" gradientUnits="userSpaceOnUse" x1="514.445" y1="1470.087" x2="500.151" y2="1500.852" gradientTransform="matrix(3.4588 1.9506 -1.7337 3.0742 431.612 -4624.926)"><stop offset="0" stop-color="#bedfea"/><stop offset="1" stop-color="#fff" stop-opacity="0"/></linearGradient><path opacity=".39" fill="url(#SVGID_13_)" d="M-335.1 886.1l-97.1 62.1 104.2-45.6z"/><g opacity=".8" fill="#FFF"><path opacity=".2" d="M-341.9 899.1c-2.5-6 0-12.8 5.8-15.5 5.8-2.8 12.5 0 14.9 6 2.5 6 0 12.8-5.8 15.5-5.8 2.7-12.4-.1-14.9-6z"/><path d="M-335.1 886.1l5.2 4 6.5.6-4 5.1-.6 6.8-5.1-4.1-6.5-.5 3.9-5.4z"/></g><linearGradient id="SVGID_14_" gradientUnits="userSpaceOnUse" x1="582.959" y1="1374.663" x2="568.665" y2="1405.428" gradientTransform="matrix(3.4588 1.9506 -1.7337 3.0742 431.612 -4624.926)"><stop offset="0" stop-color="#bedfea"/><stop offset="1" stop-color="#fff" stop-opacity="0"/></linearGradient><path opacity=".39" fill="url(#SVGID_14_)" d="M67.2 726.2l-97.1 62.2L74.5 743z"/><g opacity=".8" fill="#FFF"><path opacity=".2" d="M60.4 739.5c-2.5-6 0-12.8 5.8-15.5s12.5 0 14.9 6c2.5 6 0 12.8-5.8 15.5-5.6 2.4-12.2-.3-14.9-6z"/><path d="M67.4 726.2l5 4.4 6.4.5-3.9 5.1-.4 6.8-5.2-4-6.4-.6 3.9-5.4z"/></g><linearGradient id="SVGID_15_" gradientUnits="userSpaceOnUse" x1="572.963" y1="1190.278" x2="558.668" y2="1221.044" gradientTransform="matrix(3.4588 1.9506 -1.7337 3.0742 431.612 -4624.926)"><stop offset="0" stop-color="#bedfea"/><stop offset="1" stop-color="#fff" stop-opacity="0"/></linearGradient><path opacity=".39" fill="url(#SVGID_15_)" d="M352.3 140l-97.1 62.1 104.3-45.3z"/><g opacity=".8" fill="#FFF"><path opacity=".2" d="M345.7 152.9c-2.5-6 0-12.8 5.8-15.5s12.5 0 14.9 6c2.5 6 0 12.8-5.8 15.5s-12.5 0-14.9-6z"/><path d="M352.5 140l5 4 6.6.5-4.1 5.5-.5 6.8-5.1-4.1-6.4-.8 3.9-5.2z"/></g><linearGradient id="SVGID_16_" gradientUnits="userSpaceOnUse" x1="693.052" y1="1163.744" x2="678.758" y2="1194.509" gradientTransform="matrix(3.4588 1.9506 -1.7337 3.0742 431.612 -4624.926)"><stop offset="0" stop-color="#bedfea"/><stop offset="1" stop-color="#fff" stop-opacity="0"/></linearGradient><path opacity=".39" fill="url(#SVGID_16_)" d="M813.8 292.7l-97.1 62.2 104.1-45.6z"/><g opacity=".8" fill="#FFF"><path opacity=".2" d="M807 305.7c-2.5-6 0-12.8 5.8-15.5 5.8-2.8 12.5 0 14.9 6 2.4 6 0 12.8-5.8 15.5-5.6 2.7-12.5.1-14.9-6z"/><path d="M813.8 292.7l5.2 4.1 6.4.5-4 5.2-.6 6.8-5-4.1-6.4-.5 4-5.5z"/></g><linearGradient id="SVGID_17_" gradientUnits="userSpaceOnUse" x1="670.548" y1="1341.512" x2="656.258" y2="1372.269" gradientTransform="matrix(3.4588 1.9506 -1.7337 3.0742 431.612 -4624.926)"><stop offset="0" stop-color="#bedfea"/><stop offset="1" stop-color="#fff" stop-opacity="0"/></linearGradient><path opacity=".39" fill="url(#SVGID_17_)" d="M427.7 795.4l-97.1 61.9L434.9 812z"/><g opacity=".8" fill="#FFF"><path opacity=".2" d="M421 808.4c-2.5-6 0-12.8 5.8-15.5 5.8-2.8 12.5 0 14.9 6 2.5 6 0 12.8-5.8 15.5-5.8 2.5-12.4 0-14.9-6z"/><path d="M427.9 795.4l5 4.1 6.5.5-3.9 5.2-.6 6.8-5.2-4.1-6.4-.6 3.9-5.4z"/></g><linearGradient id="SVGID_18_" gradientUnits="userSpaceOnUse" x1="468.019" y1="1400.541" x2="453.729" y2="1431.298" gradientTransform="matrix(3.4588 1.9506 -1.7337 3.0742 431.612 -4624.926)"><stop offset="0" stop-color="#bedfea"/><stop offset="1" stop-color="#fff" stop-opacity="0"/></linearGradient><path opacity=".39" fill="url(#SVGID_18_)" d="M-375 581.8l-97.1 61.9 104.1-45.4z"/><g opacity=".8" fill="#FFF"><path opacity=".2" d="M-381.8 594.8c-2.5-6 0-12.8 5.8-15.5 5.8-2.8 12.5 0 14.9 6 2.5 6 0 12.8-5.8 15.5-5.8 2.4-12.5-.3-14.9-6z"/><path d="M-375 581.8l5.2 4.1 6.4.5-4 5.2-.6 6.7-5.1-4-6.5-.6 4-5.4z"/></g><g opacity=".8" fill="#FFF"><path opacity=".2" d="M289.4 1003.1c-1.2-2.8 0-6.3 2.7-7.3 2.7-1.4 6 0 7 3 1.2 2.8 0 6.3-2.7 7.3s-5.8-.1-7-3z"/><path d="M292.7 996.8l2.4 1.9 2.9.3-1.8 2.7-.2 3-2.5-1.9-3.1-.3 1.9-2.4z"/></g><g opacity=".8" fill="#FFF"><path opacity=".2" d="M-15 638.8c-1.2-2.8 0-6.3 2.7-7.3 2.7-1.4 6 0 7 3 1.2 2.8 0 6.3-2.7 7.3-2.5 1.4-5.7 0-7-3z"/><path d="M86.6 551.1l2.6 1.9 3.1.3-1.9 2.5-.2 3.2-2.5-1.9-3.1-.3 1.9-2.4z"/></g><g opacity=".8" fill="#FFF"><path opacity=".2" d="M-212.1 759.3c-1.2-2.8 0-6.3 2.7-7.3 2.7-1.4 6 0 7 3 1.2 2.8 0 6.3-2.7 7.3-2.6 1.3-5.7 0-7-3z"/><path d="M-208.8 753.3l2.5 1.9 2.9.3-1.9 2.5-.1 3.2-2.5-1.9-3.2-.2 2.2-2.8z"/></g><g opacity=".8" fill="#FFF"><path opacity=".2" d="M355.2 629.9c-1.2-2.8 0-6.3 2.7-7.3 2.7-1.1 6 0 7 3 1.2 2.8 0 6.3-2.7 7.3s-5.7-.1-7-3z"/><path d="M358.5 623.6l2.5 1.9 3.1.2-1.8 2.8-.5 3-2.4-1.9-2.9-.3 1.8-2.4z"/></g><linearGradient id="SVGID_19_" gradientUnits="userSpaceOnUse" x1="450.964" y1="1299.564" x2="436.67" y2="1330.329" gradientTransform="matrix(3.4588 1.9506 -1.7337 3.0742 431.612 -4624.926)"><stop offset="0" stop-color="#bedfea"/><stop offset="1" stop-color="#fff" stop-opacity="0"/></linearGradient><path opacity=".39" fill="url(#SVGID_19_)" d="M-259 237.9l-97.1 62.2 104.1-45.4z"/><g opacity=".8" fill="#FFF"><path opacity=".2" d="M-265.9 251c-2.5-6 0-12.8 5.8-15.5 5.8-2.8 12.5 0 14.9 6 2.5 6 0 12.8-5.8 15.5-5.6 2.6-12.4-.1-14.9-6z"/><path d="M-259 237.9l5.1 4 6.4.9-3.9 5.2-.6 6.7-5-4.1-6.4-.8 3.9-5.1z"/></g><g opacity=".8" fill="#FFF"><path opacity=".2" d="M-389.9 440.6c-1.2-2.8 0-6.3 2.7-7.3 2.7-1.4 6 0 7 3 1.2 2.8 0 6.3-2.7 7.3s-5.8-.2-7-3z"/><path d="M-386.6 434.4l2.5 1.9 2.9.3-1.9 2.4-.2 3.3-2.5-1.9-2.9-.3 1.9-2.4z"/></g><g opacity=".8" fill="#FFF"><path opacity=".2" d="M-187 444.5c-1.2-2.8 0-6.3 2.7-7.3 2.7-1.1 6 0 7 3 1.2 2.8 0 6.3-2.7 7.3-2.6 1.3-6-.1-7-3z"/><path d="M-183.9 438.2l2.5 2.2 3.1.2-1.9 2.5-.2 3.3-2.5-1.9-3.1-.3 1.9-2.7z"/></g><g opacity=".8" fill="#FFF"><path opacity=".2" d="M-73.2 1030.7c-2.1-4.9 0-10.6 4.7-12.8 4.7-2.1 10.2 0 12.2 4.9 2.1 4.9 0 10.6-4.7 12.8-4.7 2.1-10.1 0-12.2-4.9z"/><path d="M-67.5 1020.2l4.1 3.2 5.1.5-3 4.4-.5 5.4-4.3-3.5-5.2-.3 3.3-4.3z"/></g><g opacity=".8" fill="#FFF"><path opacity=".2" d="M520.8 313.1c-2.1-4.9 0-10.6 4.7-12.8 4.7-2.1 10.2 0 12.2 4.9 2.1 4.9 0 10.6-4.7 12.8-4.5 2.2-10.1 0-12.2-4.9z"/><path d="M526.6 302.5l4.1 3.2 5.2.6-3 4.3-.7 5.4-4.2-3.2-5.1-.5 3.1-4.4z"/></g><g opacity=".8" fill="#FFF"><path opacity=".2" d="M-393.6 728.6c-1.2-2.8 0-6.3 2.7-7.3 2.7-1.4 6 0 7 3 1.2 2.8 0 6.3-2.7 7.3-2.7 1.1-6-.3-7-3z"/><path d="M-390.5 722.4l2.4 1.9 3.2.3-1.9 2.4-.2 3.3-2.5-2-3.1-.2 1.9-2.4z"/></g></g></g></svg>