<?xml version="1.0" encoding="utf-8"?>
<!-- Generator: Adobe Illustrator 18.0.0, SVG Export Plug-In . SVG Version: 6.00 Build 0)  -->
<!DOCTYPE svg PUBLIC "-//W3C//DTD SVG 1.1//EN" "http://www.w3.org/Graphics/SVG/1.1/DTD/svg11.dtd">
<svg version="1.1" id="Capa_1" xmlns="http://www.w3.org/2000/svg" xmlns:xlink="http://www.w3.org/1999/xlink" x="0px" y="0px"
	 viewBox="1.5 278.1 998.5 441.9" enable-background="new 1.5 278.1 998.5 441.9" xml:space="preserve">
<g>
	
		<linearGradient id="SVGID_1_" gradientUnits="userSpaceOnUse" x1="1.9" y1="722.6" x2="1251" y2="722.6" gradientTransform="matrix(0.8 0 0 -0.8 0 1078.0801)">
		<stop  offset="0" style="stop-color:#4529A7"/>
		<stop  offset="1" style="stop-color:#22002B"/>
	</linearGradient>
	<path fill="url(#SVGID_1_)" d="M1000.8,279.2c-2.8-0.7-5.8-1.1-8.8-1.1H38.9c-20.6,0-37.4,18-37.4,40v363.8c0,22,16.8,40,37.4,40
		H992c3,0,5.9-0.4,8.8-1.1V279.2z"/>
	
		<image overflow="visible" enable-background="new    " width="1226" height="555" xlink:href="8E3B03E7.png"  transform="matrix(0.8 0 0 0.8 20 278.08)">
	</image>
	
		<image overflow="visible" enable-background="new    " width="1187" height="555" xlink:href="8E3B03E2.png"  transform="matrix(0.8 0 0 0.8 51.2 278.08)">
	</image>
	
		<image overflow="visible" enable-background="new    " width="1286" height="491" xlink:href="8E3B03E1.png"  transform="matrix(0.7706 0 0 0.8 5 293.28)">
	</image>
</g>
</svg>
