<svg version="1.1" id="Capa_1" xmlns="http://www.w3.org/2000/svg" xmlns:xlink="http://www.w3.org/1999/xlink" x="0" y="0" viewBox="0 0 210.1 210.1" xml:space="preserve"><g id="fondo"><g fill="#FFF"><g opacity=".8"><circle opacity=".2" cx="24.2" cy="100.9" r="2.4"/><path d="M23.4 99.2l1.1.8 1.4.1-.9 1.1-.1 1.4-1.1-.8-1.4-.2.9-1.1z"/></g><g opacity=".8"><circle opacity=".2" cx="111.6" cy="106.8" r="2.4"/><path d="M110.8 105.1l1.1.8 1.4.1-.9 1.1-.1 1.4-1.1-.9-1.3-.1.8-1.1z"/></g><g opacity=".8"><circle opacity=".2" cx="175.3" cy="69.6" r="1.2"/><path d="M174.9 68.8l.5.4h.7l-.4.6-.1.6-.5-.4h-.6l.4-.6z"/></g><g opacity=".8"><circle opacity=".2" cx="185.6" cy="145.7" r="1.2"/><path d="M185.2 144.9l.6.4.6.1-.4.5v.7l-.6-.4-.6-.1.4-.5z"/></g><g opacity=".8"><circle opacity=".2" cx="104.4" cy="60" r="1.2"/><path d="M104 59.2l.5.4h.7l-.4.6-.1.6-.5-.4h-.7l.5-.6z"/></g><g opacity=".8"><circle opacity=".2" cx="145.5" cy="46.3" r="1.2"/><path d="M145.2 45.5l.5.4h.7l-.4.5-.1.7-.5-.4-.7-.1.4-.5z"/></g><g opacity=".8"><circle opacity=".2" cx="160" cy="108.5" r="1.2"/><path d="M159.7 107.7l.5.4h.7l-.5.6v.6l-.5-.4-.7-.1.4-.5z"/></g><g opacity=".8"><circle opacity=".2" cx="57.3" cy="35.4" r="1.2"/><path d="M57 34.6l.5.4h.7l-.4.5-.1.7-.5-.4-.7-.1.4-.5z"/></g><g opacity=".8"><circle opacity=".2" cx="48.9" cy="159.7" r="2"/><path d="M48.3 158.3l.9.7 1.1.1-.7.9-.1 1.1-.9-.7h-1.1l.7-1z"/></g><g opacity=".8"><circle opacity=".2" cx="68.1" cy="63.7" r="2"/><path d="M67.5 62.2l.9.7 1.1.1-.7.9-.1 1.2-.9-.7-1.1-.1.7-.9z"/></g><g opacity=".8"><circle opacity=".2" cx="6.9" cy="25.7" r="1.2"/><path d="M6.5 24.9l.6.4h.6l-.4.5v.7l-.6-.4-.6-.1.4-.5z"/></g></g><linearGradient id="SVGID_1_" gradientUnits="userSpaceOnUse" x1="5.687" y1="104.652" x2="202.777" y2="104.652"><stop offset="0" stop-color="#3d1b48"/><stop offset=".015" stop-color="#3e1d4c"/><stop offset=".059" stop-color="#402157"/><stop offset=".109" stop-color="#412360"/><stop offset=".167" stop-color="#422566"/><stop offset=".241" stop-color="#422669"/><stop offset=".384" stop-color="#42266a"/><stop offset=".456" stop-color="#3d2460"/><stop offset=".64" stop-color="#321d48"/><stop offset=".799" stop-color="#291736"/><stop offset=".924" stop-color="#22122b"/><stop offset="1" stop-color="#1f1026"/></linearGradient><circle fill="url(#SVGID_1_)" cx="105.1" cy="104.7" r="99.4"/><g opacity=".07"><image overflow="visible" opacity=".75" width="2567" height="2567" xlink:href="29DE09DE.png" transform="translate(28.156 27.75) scale(.06072)"/><circle fill="#FFF" cx="105.1" cy="104.7" r="74.1"/></g><g opacity=".05"><image overflow="visible" opacity=".75" width="2963" height="2963" xlink:href="29DE09D8.png" transform="translate(16.096 15.69) scale(.06075)"/><circle fill="#FFF" cx="105.1" cy="104.7" r="86.2"/></g><path opacity=".3" fill="#010202" d="M105.1 204c29.9 0 56.7-12.8 74.9-33.1-.6.1-1.1.2-1.7.3-2-3.6-5.9-6.1-10.4-6.1-.8 0-1.5.1-2.3.2-4.5-3.7-10.3-6-16.7-6-1 0-2 .1-2.9.2-1.7-2.2-4.5-3.6-7.5-3.6-.5 0-1 0-1.4.1-6.2-7.1-15.5-11.7-25.9-11.7-11 0-20.7 5.1-27 12.9-.9-.6-2-.9-3.1-.9-3 0-5.4 2.3-5.6 5.2-8 .3-15 4.1-19.5 9.8-1.7-1.7-4.1-2.7-6.7-2.7-3.7 0-6.9 2.1-8.5 5-1.6-.3-3.2-.5-4.9-.5-1.1 0-2.3.1-3.4.2 18.1 18.9 43.9 30.7 72.6 30.7z"/><path fill="#CFE8E1" d="M179.6 170.4c-1-.1-2-.2-3-.2-1.6 0-3.1.2-4.6.5-1.8-3.4-5.4-5.8-9.5-5.8-.7 0-1.4.1-2.1.2-4.1-3.5-9.4-5.6-15.2-5.6-.9 0-1.8.1-2.7.2-1.6-2.1-4.1-3.4-6.9-3.4-.5 0-.9 0-1.3.1-5.7-6.7-14.2-11-23.7-11-10 0-18.9 4.8-24.6 12.2-.8-.6-1.8-.9-2.8-.9-2.7 0-5 2.2-5.1 4.8-7.2.3-13.7 3.8-17.8 9.2-1.6-1.6-3.7-2.5-6.1-2.5-3.4 0-6.3 1.9-7.7 4.7-1.5-.3-3-.4-4.5-.4-2.9 0-5.6.5-8.2 1.5 15.5 15.9 36.3 26.7 59.6 29.4.3-.2.6-.5.9-.7.6.4 1.2.7 1.7 1 3 .3 6 .4 9 .4 8.4 0 16.5-1 24.2-3 .2-.2.4-.3.6-.4.1.1.2.2.3.2 19.5-5.1 36.6-15.9 49.5-30.5z"/></g><g fill="#FFF"><g opacity=".8"><circle opacity=".2" cx="35.4" cy="93.5" r="2.1"/><path d="M34.7 92l.9.8 1.3.1-.8.9L36 95l-.9-.7-1.2-.1.7-1z"/></g><g opacity=".8"><circle opacity=".2" cx="111.9" cy="98.7" r="2.1"/><path d="M111.2 97.2l1 .7 1.2.1-.8 1-.1 1.2-.9-.7-1.2-.2.7-.9z"/></g><g opacity=".8"><circle opacity=".2" cx="167.6" cy="66.2" r="1"/><path d="M167.3 65.4l.5.4h.6l-.4.5v.6l-.5-.4h-.6l.4-.5z"/></g><g opacity=".8"><circle opacity=".2" cx="176.7" cy="132.8" r="1"/><path d="M176.3 132.1l.5.3.6.1-.4.5v.5l-.5-.3-.6-.1.4-.4z"/></g><g opacity=".8"><circle opacity=".2" cx="105.6" cy="57.8" r="1"/><path d="M105.3 57l.4.4h.6l-.4.5v.6l-.5-.4h-.5l.3-.5z"/></g><g opacity=".8"><circle opacity=".2" cx="141.6" cy="45.7" r="1"/><path d="M141.3 45l.4.4h.6l-.3.5-.1.6-.5-.4h-.5l.3-.5z"/></g><g opacity=".8"><circle opacity=".2" cx="154.3" cy="100.2" r="1"/><path d="M154 99.5l.4.3.6.1-.3.4-.1.6-.5-.4h-.5l.3-.5z"/></g><g opacity=".8"><circle opacity=".2" cx="64.4" cy="36.2" r="1"/><path d="M64.1 35.5l.5.3.5.1-.3.4-.1.6-.5-.4h-.5l.3-.5z"/></g><g opacity=".8"><circle opacity=".2" cx="57" cy="145" r="1.7"/><path d="M56.5 143.8l.8.6.9.1-.6.8-.1 1-.7-.6-1-.1.6-.8z"/></g><g opacity=".8"><circle opacity=".2" cx="73.8" cy="60.9" r="1.7"/><path d="M73.3 59.7l.8.6 1 .1-.7.8v1l-.8-.6-1-.1.6-.8z"/></g><g opacity=".8"><circle opacity=".2" cx="20.2" cy="27.7" r="1"/><path d="M19.9 27l.5.3.6.1-.4.5v.5l-.5-.3-.6-.1.4-.4z"/></g></g><image overflow="visible" opacity=".3" width="250" height="250" xlink:href="29DE09D7.png" transform="translate(179.322 72.935) scale(.05958)"/><path fill="#E94262" d="M190.4 81c1.7-5.3-4-9.2-8.3-5.8-.7.5-1.1 1.2-1.4 2-1.7 5.3 4 9.2 8.3 5.8.6-.5 1.1-1.2 1.4-2z"/><path fill="#FFF" d="M186.9 76.2c-1.1 0-1.6 1-1.7 1.4-.3-.3-1-1.1-2.1-.7-1.5.6-1.4 2.6.4 3.8 1.7 1.1 2.6 1.3 2.6 1.3s.7-.4 1.9-2.1c1.1-1.7.6-3.7-1.1-3.7z"/><image overflow="visible" opacity=".3" width="254" height="254" xlink:href="29DE09F0.png" transform="matrix(.0596 0 0 .05984 31.077 129.832)"/><path fill="#E94262" d="M40.9 140.2c4-4.1.6-10.4-5-9.2-.8.2-1.5.6-2.1 1.1-4 4.1-.6 10.4 5 9.2.8-.2 1.6-.6 2.1-1.1z"/><path fill="#FFF" d="M40 134.2c-1-.5-1.9.2-2.2.5-.1-.4-.4-1.5-1.6-1.6-1.7-.2-2.5 1.8-1.4 3.6 1 1.8 1.7 2.4 1.7 2.4s.9-.1 2.7-1.1c2-1 2.3-3.1.8-3.8z"/><image overflow="visible" opacity=".3" width="238" height="233" xlink:href="29DE09F1.png" transform="matrix(.05925 0 0 .06055 87.168 14.883)"/><path fill="#E94262" d="M97.5 22.3c1.4-4.7-3.6-8.3-7.6-5.4-.7.5-1.2 1.2-1.4 2.1-1.5 4.7 3.5 8.3 7.5 5.3.7-.4 1.2-1.2 1.5-2z"/><path fill="#FFF" d="M94.3 18c-1.1 0-1.5.9-1.6 1.3-.3-.3-.9-1-1.9-.7-1.4.5-1.3 2.4.3 3.5s2.4 1.2 2.4 1.2.7-.4 1.8-1.9c1-1.5.5-3.4-1-3.4z"/><image overflow="visible" opacity=".3" width="254" height="254" xlink:href="29DE09F2.png" transform="translate(167.428 127.11) scale(.07111)"/><path fill="#5E82C1" d="M180.3 131.1c3.4 6.8-4 12.8-9.9 8-.4-.3-.7-.7-.9-1.1-3.4-6.8 4-12.8 9.9-8 .4.3.7.7.9 1.1z"/><path fill="#FFF" d="M172.7 137.3l-.9-.1c-.2 0-.4-.2-.4-.5l.3-3c0-.2.2-.4.5-.4l.9.1c.2 0 .4.2.4.5l-.3 3c-.1.3-.3.4-.5.4zm5.2-2.8c.2-.1.4-.3.4-.5 0-.3-.2-.6-.5-.7l-1.7-.2c0-.1.4-.6.5-.8.1-.2.2-.3.2-.5s0-.5-.1-.7c-.1-.3-.3-.6-.6-.6s-.5.3-.5.6c0 0 .1.2 0 .3 0 .1-.2.2-.4.5l-1.1 1.1c-.2.2-.2.4-.3.6v.1l-.3 2.5c0 .2.2.5.4.5l3 .3c.3 0 .6-.2.6-.5 0-.1 0-.2-.1-.3.2-.1.4-.2.4-.5 0-.2 0-.3-.1-.4.2-.1.4-.3.4-.5.1 0 0-.2-.2-.3z"/><image overflow="visible" opacity=".3" width="233" height="233" xlink:href="29DE09F3.png" transform="translate(38.775 44.736) scale(.0639)"/><path fill="#5E82C1" d="M48.7 47.5c3.5 4.8-1.5 10.4-6.7 7.5-.4-.2-.7-.5-1-.9-3.5-4.8 1.5-10.4 6.7-7.5.4.2.7.5 1 .9z"/><path fill="#FFF" d="M43.4 53.2h-.7c-.2 0-.4-.2-.4-.4l-.1-2.3c0-.2.2-.4.4-.4h.7c.2 0 .4.2.4.4l.1 2.3c0 .2-.2.4-.4.4zm3.8-2.9c.2-.1.3-.3.3-.5 0-.3-.2-.5-.5-.4l-1.4.1c0-.1.2-.5.3-.7.1-.1.1-.3.1-.4 0-.2-.1-.4-.1-.5-.1-.2-.3-.4-.6-.4-.2.1-.4.3-.3.6l.1.2c0 .1-.1.2-.2.4-.2.4-.6.9-.7 1-.2.3-.2.5-.2.7v.1l.1 2c0 .2.2.3.4.3l2.4-.1c.2 0 .4-.2.4-.5 0-.1-.1-.2-.1-.2.2-.1.3-.2.2-.4 0-.1-.1-.2-.1-.3.1-.1.2-.2.2-.4 0-.3-.2-.5-.3-.6z"/><image overflow="visible" opacity=".3" width="204" height="204" xlink:href="29DE09F4.png" transform="translate(14.518 84.474) scale(.0776)"/><path fill="#FDE355" d="M24.6 93.9c3.3-4.6-1.4-10-6.5-7.5-.5.2-.9.6-1.2 1-3.3 4.6 1.4 10 6.5 7.5.5-.2.9-.5 1.2-1z"/><path fill="#201712" d="M17.2 89.5c0 .2-.1.4-.1.6-.1 2 1.4 3.7 3.4 3.8 2 .1 3.8-1.3 3.9-3.3V90c-1.1-.4-2.3-.6-3.5-.7-1.3-.1-2.5 0-3.7.2z"/><path fill="#E94262" d="M23.7 92.6c-.8-.6-1.7-1-2.8-1.1-1.2-.1-2.3.2-3.1.8.6.9 1.6 1.5 2.8 1.6 1.2.1 2.3-.4 3.1-1.3z"/><path fill="#201712" d="M24.2 89l-1.9-.6c-.1 0-.1-.1-.1-.1 0-.1 0-.1.1-.1l1.4-.4c.1 0 .2 0 .2.1s0 .2-.1.2l-1 .3 1.4.5c.1 0 .1.1.1.2 0-.1-.1 0-.1-.1zm-6.6-.4c-.1 0-.1-.1-.1-.1 0-.1 0-.2.1-.2L19 88l-.9-.4c-.1 0-.1-.1-.1-.2s.1-.1.2-.1l1.4.6c.1 0 .1.1.1.2s-.1.1-.1.1l-2 .4c.1 0 0 0 0 0z"/><image overflow="visible" opacity=".3" width="196" height="196" xlink:href="29DE09F5.png" transform="translate(141.206 35.322) scale(.05862)"/><path fill="#FDE355" d="M148.5 41.9c2-3.1-1.1-6.7-4.5-5.1-.5.2-.9.6-1.1 1-2 3.1 1.1 6.7 4.5 5.1.4-.3.8-.6 1.1-1z"/><path fill="#201712" d="M143.2 38.9c0 .1-.1.3-.1.4-.1 1.4 1 2.6 2.4 2.7 1.4.1 2.7-.9 2.8-2.3v-.5c-.8-.3-1.6-.4-2.5-.5-.9 0-1.8.1-2.6.2z"/><path fill="#E94262" d="M147.7 41.1c-.5-.4-1.2-.7-2-.8-.8-.1-1.6.2-2.2.6.4.6 1.1 1.1 2 1.1.9.1 1.7-.3 2.2-.9z"/><path fill="#201712" d="M148.1 38.6l-1.3-.4c-.1 0-.1-.1-.1-.1s0-.1.1-.1l1-.3c.1 0 .1 0 .1.1s0 .1-.1.1l-.7.2 1 .3v.2zm-4.6-.3c-.1 0-.1-.1-.1-.1 0-.1 0-.1.1-.1l1-.2-.6-.3c-.1 0-.1-.1-.1-.2s.1-.1.2-.1l.9.5c.1 0 .1.1.1.1 0 .1-.1.1-.1.1l-1.4.3z"/><g id="sol"><image overflow="visible" opacity=".6" width="1958" height="2033" xlink:href="D176D2C.png" transform="translate(46.533 36.442) scale(.06065)"/><path d="M105.4 156.5l-13.8-12.7 26.4-1.1zM69 142.1l-2.8-18.5 21.3 15.7zm71.7 2.3l-18.5-2.3 20.8-16.3zM106.9 37.7L93.1 50.4l26.4 1.1zM69 48.2l-2.8 18.5L87.5 51zm72.7 2.8l-18.6 2.3L144 69.5zM162 83l-15.8-10.1 5.7 25.9zm-1.3 35.7l-8.9-16.5-7.6 25.4zM47.8 81.8l15.6-10.3-5.3 25.9zm0 32l9.8-16 6.2 25.8z" fill="#F1E744"/><image overflow="visible" opacity=".3" width="1758" height="1758" xlink:href="D176D32.png" transform="matrix(.06067 0 0 .0607 51.99 44.512)"/><image overflow="visible" opacity=".6" width="1692" height="1692" xlink:href="D176D33.png" transform="translate(54.533 47.056) scale(.06065)"/><circle fill="#F1E744" cx="104.8" cy="97.3" r="49"/></g></svg>