<?xml version="1.0" encoding="utf-8"?>
<!-- Generator: Adobe Illustrator 18.0.0, SVG Export Plug-In . SVG Version: 6.00 Build 0)  -->
<!DOCTYPE svg PUBLIC "-//W3C//DTD SVG 1.1//EN" "http://www.w3.org/Graphics/SVG/1.1/DTD/svg11.dtd" [
	<!ENTITY ns_extend "http://ns.adobe.com/Extensibility/1.0/">
	<!ENTITY ns_ai "http://ns.adobe.com/AdobeIllustrator/10.0/">
	<!ENTITY ns_graphs "http://ns.adobe.com/Graphs/1.0/">
	<!ENTITY ns_vars "http://ns.adobe.com/Variables/1.0/">
	<!ENTITY ns_imrep "http://ns.adobe.com/ImageReplacement/1.0/">
	<!ENTITY ns_sfw "http://ns.adobe.com/SaveForWeb/1.0/">
	<!ENTITY ns_custom "http://ns.adobe.com/GenericCustomNamespace/1.0/">
	<!ENTITY ns_adobe_xpath "http://ns.adobe.com/XPath/1.0/">
]>
<svg version="1.1" id="Capa_1" xmlns:x="&ns_extend;" xmlns:i="&ns_ai;" xmlns:graph="&ns_graphs;"
	 xmlns="http://www.w3.org/2000/svg" xmlns:xlink="http://www.w3.org/1999/xlink" x="0px" y="0px" viewBox="0 368.6 995.5 235.3"
	 enable-background="new 0 368.6 995.5 235.3" xml:space="preserve">
<metadata><?xpacket begin="﻿" id="W5M0MpCehiHzreSzNTczkc9d"?>
<x:xmpmeta xmlns:x="adobe:ns:meta/" x:xmptk="Adobe XMP Core 5.6-c011 79.156289, 2014/03/31-23:39:12        ">
   <rdf:RDF xmlns:rdf="http://www.w3.org/1999/02/22-rdf-syntax-ns#">
      <rdf:Description rdf:about=""
            xmlns:xmp="http://ns.adobe.com/xap/1.0/"
            xmlns:xmpGImg="http://ns.adobe.com/xap/1.0/g/img/"
            xmlns:xmpTPg="http://ns.adobe.com/xap/1.0/t/pg/"
            xmlns:stDim="http://ns.adobe.com/xap/1.0/sType/Dimensions#"
            xmlns:xmpG="http://ns.adobe.com/xap/1.0/g/"
            xmlns:dc="http://purl.org/dc/elements/1.1/"
            xmlns:xmpMM="http://ns.adobe.com/xap/1.0/mm/"
            xmlns:stRef="http://ns.adobe.com/xap/1.0/sType/ResourceRef#"
            xmlns:stEvt="http://ns.adobe.com/xap/1.0/sType/ResourceEvent#">
         <xmp:CreatorTool>Adobe Illustrator CC 2014 (Windows)</xmp:CreatorTool>
         <xmp:CreateDate>2019-02-23T10:29:02-05:00</xmp:CreateDate>
         <xmp:MetadataDate>2019-02-23T10:29:02-05:00</xmp:MetadataDate>
         <xmp:ModifyDate>2019-02-23T10:29:02-05:00</xmp:ModifyDate>
         <xmp:Thumbnails>
            <rdf:Alt>
               <rdf:li rdf:parseType="Resource">
                  <xmpGImg:width>256</xmpGImg:width>
                  <xmpGImg:height>64</xmpGImg:height>
                  <xmpGImg:format>JPEG</xmpGImg:format>
                  <xmpGImg:image>/9j/4AAQSkZJRgABAgEASABIAAD/7QAsUGhvdG9zaG9wIDMuMAA4QklNA+0AAAAAABAASAAAAAEA&#xA;AQBIAAAAAQAB/+4ADkFkb2JlAGTAAAAAAf/bAIQABgQEBAUEBgUFBgkGBQYJCwgGBggLDAoKCwoK&#xA;DBAMDAwMDAwQDA4PEA8ODBMTFBQTExwbGxscHx8fHx8fHx8fHwEHBwcNDA0YEBAYGhURFRofHx8f&#xA;Hx8fHx8fHx8fHx8fHx8fHx8fHx8fHx8fHx8fHx8fHx8fHx8fHx8fHx8fHx8f/8AAEQgAQAEAAwER&#xA;AAIRAQMRAf/EAaIAAAAHAQEBAQEAAAAAAAAAAAQFAwIGAQAHCAkKCwEAAgIDAQEBAQEAAAAAAAAA&#xA;AQACAwQFBgcICQoLEAACAQMDAgQCBgcDBAIGAnMBAgMRBAAFIRIxQVEGE2EicYEUMpGhBxWxQiPB&#xA;UtHhMxZi8CRygvElQzRTkqKyY3PCNUQnk6OzNhdUZHTD0uIIJoMJChgZhJRFRqS0VtNVKBry4/PE&#xA;1OT0ZXWFlaW1xdXl9WZ2hpamtsbW5vY3R1dnd4eXp7fH1+f3OEhYaHiImKi4yNjo+Ck5SVlpeYmZ&#xA;qbnJ2en5KjpKWmp6ipqqusra6voRAAICAQIDBQUEBQYECAMDbQEAAhEDBCESMUEFURNhIgZxgZEy&#xA;obHwFMHR4SNCFVJicvEzJDRDghaSUyWiY7LCB3PSNeJEgxdUkwgJChgZJjZFGidkdFU38qOzwygp&#xA;0+PzhJSktMTU5PRldYWVpbXF1eX1RlZmdoaWprbG1ub2R1dnd4eXp7fH1+f3OEhYaHiImKi4yNjo&#xA;+DlJWWl5iZmpucnZ6fkqOkpaanqKmqq6ytrq+v/aAAwDAQACEQMRAD8A9U4q7FXYq7FXYq7FXYq7&#xA;FXYq7FXYq7FXYq7FXYq7FXYq7FXYq7FXYq7FXYq7FXYq7FUFq2uaLo1qbvV7+30+1G3r3UqQpXw5&#xA;OVFcIiTySBbz/VP+ckvyc092jOu/WpFrVbWCeUbeDhPTNf8AWy0aeZ6MxiknPl78ztI81aQup6BH&#xA;P9UkdkjuLmP0uXA0YopJLAHavSua7WajwpcI+r7mufpNIq11uee+mti8nqQgFmrRTUA7AfPMSOom&#xA;d7UJtbalIrBZzyjJA9ToQT407ZmYc/FsVTTMpXYq7FXYq7FXYq7FXYq7FXYq7FXYq7FXYq7FXYq7&#xA;FXYq7FXYq7FXYq7FXYq7FVC/v7HT7Ka+v7iO1s7dDJPcTMEjRF6szNQAYQL5KA+Y/wA0f+cr7qSS&#xA;bS/IMYggFVfXJ0rI2/W3hbZR/lSAn/JXrmdi0nWTkww97561nXNZ1q9e+1e+nv7x/tT3EjSP40BY&#xA;mg9htmUIgcm8CkvOKX3F5KsYrLyro9paARxQ2luoBHUBF5Ham7ePjnCZZmWSRPeXVE3IsthDEDi1&#xA;CCK7V27jLYtgVo45WlkEhVrd1AVKEHwaprmTi5qWHflP+ffljzpJ+hblv0Z5lgLR/U5WBS49OoL2&#xA;77cjQVKH4h7gVzcSxkbtk8ZD1TK2t2KuxV2KuxV2KuxV2KuxV2KuxV2KuxV2KuxV2KuxV2KuxVKP&#xA;M/m7y35X046hr2oRWFqK8DK3xOQK8Y0FXdvZQcnDHKZoBIiTyeC+bv8AnL+GOSSDyno3rBdlvtRY&#xA;qpp3EERDU+cgPtmfj7P/AJxb44O95tqP/OTX5w3TkxatFZI1f3dva25FD4GVJW/HMgaPGOjZ4MUJ&#xA;a/8AOSH5y2xH+5/1kBJKS2to4NR3b0uX44DpMfck4o9zN/LP/OYPma3kSPzHo9tqEGwaazLW0wHc&#xA;lWMqMfYcconoR0LA4B0Yb+dn54al+YF8LKw9Wx8r25BgsnIV5pAN5ZwhZSQfsrUgfPLMGnEBvzZY&#xA;8fD73l6wOwqdh75cW1ExmKGKaNYUkMyBDLKOTLR+VYx0UmgB6n33yBRSlwT+UfdgZvqD8jfzDstb&#xA;0Oz0O4uFi1nTIxCYX+1PBGOMbxkncqtA3fv3zle0dGceQzA9MvsLr82LhlfQvXlWSKFjaxoZWYMV&#xA;PwgkkciT8sxIMAwv83/zO0zyR5eulinDeY9QiZNNtVYllYgqJ3FfgROv+URTxpsNHgM5eTZDGZF8&#xA;TxvcWs0c0LtFNEweKVCVZWU1VlYbggiozekOYQ/TrNe692KuxV2KuxV2KuxV2KuxVJL3zRBZ63Hp&#xA;s8LIj0H1kn4asPhNAD8NTx5EjfLRiJjxNRzAS4Uzjv7SS7ltFf8Afw05oQR1Ab4SRRtmFaZQJA35&#xA;N5iQAe/+xEZJi7FWndERndgqKCWYmgAG5JJxV4b+Y3/OUGiaNLLp3lOBNYvkJV7+QkWaMP5OJDTf&#xA;QVXwY5s8HZ0pbz2H2t0cN83gnmT84/zK8wSN9e165jhav+jWrfVYqH9kpDw5D/WrmyhpcceQb44w&#xA;GHXFxcXD+pPK8r9ObsWPj1OXVTNMNK83eatHdX0rWL2xK9PQuJIxttuFYA5XPHGXMBHCC9O8sf8A&#xA;OVP5haVbvBqsdvrg4MIZp19GVXoeJZogodQeoK1P8wzDyaCB5bNZwgvMPNHmzzH5s1eTVNbvJL28&#xA;kqF5GiRpWoSNB8KKPAZkQxxgKDYIgcks+pSBVZ6qrfZNNjTrQ4mTJo2sfiTkSVWtbR+4wWqxrUfs&#xA;t9+C1XmxmgSKSaNlE6mSBmUhXQMyckJ+0OaMtR3BHbIkq2EZvsgnIKvFrIepA/XgJW1SCwjknjjk&#xA;nWBHYK0zhiiAmhZggd6L1PFSfAZAlNrY4TGyyxSPHKhDI6mjAjoQRQg4DurJY/zL/MmK2+rx+Zr7&#xA;0wKAmVi9P+Mhq/45inSYrvhDDwo9zFL19Qu7mS6u5nurmU8pZ5XaSRj4szEsTl4AGwbAKQTL1DD5&#xA;g4lL9M81rq3Yq7FXYq7FVOa5t4aetKkfL7PNgtaeFcIBKqgIIBBqDuCMCuxV51+Zf53eV/JJay31&#xA;PXONRp8LACOoqDPJQhK+FC3tTfM7S6CeXflHvZxgS8zsPzt03Ub+C88z6lBPLOIxFo1rZsLe15uC&#xA;pkun/vCqsC+7AUYca0rZn0WYSEcQ9HUnmefuof6Ym+lWzODGYkkHiHL8Ub+yu83TDvzn1bzsuqx2&#xA;91dE6JMqSaakQFEMaBWHqEeqW3+0W+IH6Bldm6XFEA/xxsczy8xe58zv81waiOSzVHry+zYbeX6g&#xA;wfTPO/nbSHV9O1u/tQnRUnlCbdmQngR7EZsp4ccuYDcYgvV/I/8AzlP5gspo7XzdbLqlmSA19bqs&#xA;Vyg/mKDjFJ8gF+ea7P2XE7w2LXLCOiX/AJ3/AJ7Tea2OgeWZpIvLtB9ZuAGjku2IqVYGjLEv8p6n&#xA;c9sOj0Xh+qX1fcnHjrcvG1tu7n6BmcZNqvBbQu5VnSIBXYO4YglVLBRxVzVyOK9qncgVOVklVvpy&#xA;fyn7sCqbxmnxLt7jAlRe3ibtT5Y2qpFHQ/AnICm3QfTT+uVkpRN1aX4aJLwGNooUEKMnAiJx6qGl&#xA;F2YScg3etcgKQFH6ovdifltjaV09talgYA6LxQEOwc8woDmoVNmapApsNqnqY2qHa0PZqn3GNptd&#xA;FYPwaZlLRoQGYA8QWrxBPvQ0yJKkryABQbDIoWnIpWnArR6YErvq0/1Vrrgfq6usRk2pzYFgo8dl&#xA;ORK2oHAyX3NiEhVpnj5sSBCG5SClN2C149ejEHbI2i36O5r3WOxV2KsL/Mj81PL3kayU3lbrVJ1L&#xA;WmmxEB3A25u2/ppXbkfoBoczNJop5zttHvZRiS+afNn51fmH5mlcNqD6dYtstnYFoEA8GcH1H9+T&#xA;U9s6LD2fhxdLPm3iADBpUuJZGklf1JGNWdiSSfcnMviDJF6VrnmPRZRPpOo3FjIDWttK8dfmFIBH&#xA;scrnCE9pC1oF6Na/85LefYvLt1pdysVxqcqena6vxEc0VdizRqODtT7JoKHc1zXy7KxcYkOXcw8I&#xA;W8rkE1xO89zI89xMxeWR2LMzMaksx3JJ75n3WwbFRbd6bLQfdlZKphqGqa1qKQR3901zFaokUETs&#xA;QgWMUWoWlTx25fa98qEIjkGEccY2QOaAmW7kWNZJOSxLxjjFFUCpPQACu/XriALtmAhJbf8AnT6f&#xA;7RkrSthtv5B82OCRSiVgRevxHxOVkqrJa3Ekc00MLNDAA07opKRqzBVLHfiCzACvfIEoUcUroZnh&#xA;mjmQKXjYOodFkQlTUckcMrDxDAg98iQqg0aHqAT44Fd0FBgKVpyKrTgStOBWj18fbArTSzNH6TO3&#xA;pcg/pA0TkBxDcRtWnfI0tLDgVuGRIp45HiWdEZWaGQsEcA1KsUZHo3Q8WB8DkSqjgS1Wm/hgStar&#xA;GrEsaAAnfYCgyJSswJW0wK9X1381PzH1uZnudbuIEY7W9o5towPDjDx5f7InOjx6LBjG0Qffv97h&#xA;iISm017zpAXubTWL6AxANJKtzLGBU0FW5DucnOOLkYj5KaZz5V/5yK88aMhh1dU1224kRtLSOdTT&#xA;4f3iD4hXryUn3zBz9k4p7x9JQcYLzvV9R1XX9WuNX1WY3F7duXlkboK9FUdlUbKOgGZsYxhERjsA&#xA;zGym6c1iV6UiXgvFVQkFi3xFQCxq3ViTSg6AZFVnoxb/AA/icFqvkmna0+p+oUtPU9b6uhonqAEB&#xA;j/MVDEAtWgyHDvfVQEI1qtQa7D78laVQIq/ZFMgUuyJVo4FbuBCJnEDM8IZhE7qEZkr8JZQzhSR1&#xA;HI/M4AkKJwK2JWWFoQF4OyuTxUtVQwFHI5AfGagGh2r0FIkbqpd/H2wFLnklZPTLt6VQ3pg0SoFA&#xA;eI2rt1yNIpTxS1kSrcpt/SQRl2m5P6rEAR8duHD9o961p2yO6ApYlktORVpiCdhxFAKdeg3P05FW&#xA;4pnhYsgUkq6fGiuKOpQ7OGFaNseoO4oQDgKVE4qtORKtHAqw5FK+L6qpJuC7Di3FIqV58fg5Mdgt&#xA;Tv1ORKlRPTFK3AUtzyJI4ZIlhAVF4IWIJVQpb42c1cjk29KnYAUGRVROBL6Y/wCha/Nn/VzsPvm/&#xA;6p5sv5Zx90vscDxA03/ONXm1iC2p2Bp0qZtt67fu8j/K+PuP2L4gWt/zjP5rbrqWnn6Zv+qeP8r4&#xA;+4r4gXj/AJxt84CFoRqencGZXJpIWqgYAB/S5AfEagGh2r0GRPa2PukviBT/AOhZ/Nv/AFdLD75v&#xA;+qeP8rY+4p8QNH/nGXzd/wBXTT/vm/6p4P5Wh3FfEC0/84yebv8Aq6af983/AFTx/lWHcV8QLof+&#xA;caPOUMqSpqeml42DqHEki1U1HJHiZWHiGFDkT2pA9CviBT/6Fi84U/46un/fN/1Tx/lSHcU+KG1/&#xA;5xj83Dc6lp7kdFLTgde9I64D2nDuK+KF1z/zjT50uZ2mk1LS0ZuI4QrLGgCqFFFWIDoNz1J3O+Rj&#xA;2jADkVGUKR/5xf8AOB/6Wun/AHz/APVPD/KUO4p8UNv/AM4x+cWjWNdS0xEUseX74u1aU5MY+1O1&#xA;Mh/KML5FHihTP/OLnnH/AKuunffP/wBU8P8AKMO4p8YNH/nFvzj/ANXXTvvn/wCqeD+UYdxXxgtP&#xA;/OLPnL/q66d98/8A1Tx/lCHcV8YNf9Csecv+rtp33z/9U8H8oQ7ivjBr/oVfzl/1dtO++f8A6p4P&#xA;z8e4r4waP/OK3nP/AKu2nffP/wBU8H5+PcV8YNf9Cq+c/wDq7ad98/8A1Tx/PR7inxg1/wBCqec/&#xA;+rtp33z/APVLB+dj3FfHDR/5xS86f9XbTfvn/wCqWD87HuK+OGj/AM4o+dP+rtpv3z/9UsH5yPcU&#xA;+OHD/nFDznUFtW04juA04r9PpHH85HuKPHC64/5xY88zpbo2p6RGtvH6S+msylqszlpG9Lk7Vbqe&#xA;1ANgMj+aj5r4wUT/AM4m+dT/ANLfTfvn/wCqWP5uPcnxw0f+cTPO3/V30375/wDqlg/NR7l8cNf9&#xA;Cl+dv+rvpv3z/wDVLB+Zj3L44aP/ADiV52/6u+m/fP8A9UsfzI7k/mA1/wBCked/+rxpn33H/VLB&#xA;+YC/mAt/6FH87/8AV40z77j/AKpYPzAT+YDX/Qovnf8A6vGmffcf9UsHjhfzIf/Z</xmpGImg:image>
               </rdf:li>
            </rdf:Alt>
         </xmp:Thumbnails>
         <xmpTPg:MaxPageSize rdf:parseType="Resource">
            <stDim:w>995.500000</stDim:w>
            <stDim:h>235.278030</stDim:h>
            <stDim:unit>Pixels</stDim:unit>
         </xmpTPg:MaxPageSize>
         <xmpTPg:NPages>1</xmpTPg:NPages>
         <xmpTPg:HasVisibleTransparency>True</xmpTPg:HasVisibleTransparency>
         <xmpTPg:HasVisibleOverprint>False</xmpTPg:HasVisibleOverprint>
         <xmpTPg:PlateNames>
            <rdf:Seq>
               <rdf:li>Cyan</rdf:li>
               <rdf:li>Magenta</rdf:li>
               <rdf:li>Yellow</rdf:li>
               <rdf:li>Black</rdf:li>
            </rdf:Seq>
         </xmpTPg:PlateNames>
         <xmpTPg:SwatchGroups>
            <rdf:Seq>
               <rdf:li rdf:parseType="Resource">
                  <xmpG:groupName>Grupo de muestras por defecto</xmpG:groupName>
                  <xmpG:groupType>0</xmpG:groupType>
               </rdf:li>
            </rdf:Seq>
         </xmpTPg:SwatchGroups>
         <dc:format>image/svg+xml</dc:format>
         <xmpMM:DerivedFrom rdf:parseType="Resource">
            <stRef:instanceID>xmp.iid:f7c856cd-1e47-a047-b3f4-95be01d62cfa</stRef:instanceID>
            <stRef:documentID>xmp.did:f7c856cd-1e47-a047-b3f4-95be01d62cfa</stRef:documentID>
            <stRef:originalDocumentID>xmp.did:4c994b62-0b78-0847-97b5-111a66e2557e</stRef:originalDocumentID>
         </xmpMM:DerivedFrom>
         <xmpMM:DocumentID>xmp.did:3fb9d033-1742-b548-a31b-57171fa1f81a</xmpMM:DocumentID>
         <xmpMM:InstanceID>xmp.iid:3fb9d033-1742-b548-a31b-57171fa1f81a</xmpMM:InstanceID>
         <xmpMM:OriginalDocumentID>xmp.did:4c994b62-0b78-0847-97b5-111a66e2557e</xmpMM:OriginalDocumentID>
         <xmpMM:History>
            <rdf:Seq>
               <rdf:li rdf:parseType="Resource">
                  <stEvt:action>saved</stEvt:action>
                  <stEvt:instanceID>xmp.iid:4c994b62-0b78-0847-97b5-111a66e2557e</stEvt:instanceID>
                  <stEvt:when>2019-02-23T10:26:59-05:00</stEvt:when>
                  <stEvt:softwareAgent>Adobe Illustrator CC 2014 (Windows)</stEvt:softwareAgent>
                  <stEvt:changed>/</stEvt:changed>
               </rdf:li>
               <rdf:li rdf:parseType="Resource">
                  <stEvt:action>saved</stEvt:action>
                  <stEvt:instanceID>xmp.iid:3fb9d033-1742-b548-a31b-57171fa1f81a</stEvt:instanceID>
                  <stEvt:when>2019-02-23T10:29:02-05:00</stEvt:when>
                  <stEvt:softwareAgent>Adobe Illustrator CC 2014 (Windows)</stEvt:softwareAgent>
                  <stEvt:changed>/</stEvt:changed>
               </rdf:li>
            </rdf:Seq>
         </xmpMM:History>
      </rdf:Description>
   </rdf:RDF>
</x:xmpmeta>
                                                                                                    
                                                                                                    
                                                                                                    
                                                                                                    
                                                                                                    
                                                                                                    
                                                                                                    
                                                                                                    
                                                                                                    
                                                                                                    
                                                                                                    
                                                                                                    
                                                                                                    
                                                                                                    
                                                                                                    
                                                                                                    
                                                                                                    
                                                                                                    
                                                                                                    
                                                                                                    
                           
<?xpacket end="w"?>
	</metadata>
<g>
	<defs>
		<rect id="SVGID_1_" y="368.6" width="995.5" height="235.3"/>
	</defs>
	<clipPath id="SVGID_2_">
		<use xlink:href="#SVGID_1_"  overflow="visible"/>
	</clipPath>
	<g clip-path="url(#SVGID_2_)">
		<g>
			
				<linearGradient id="SVGID_3_" gradientUnits="userSpaceOnUse" x1="-0.9472" y1="708.5033" x2="2000.5702" y2="716.6395" gradientTransform="matrix(0.5 0 0 -0.5 0 868.875)">
				<stop  offset="0" style="stop-color:#4529A7"/>
				<stop  offset="1" style="stop-color:#22002B"/>
			</linearGradient>
			<path fill="url(#SVGID_3_)" d="M1000,440.4c-30.5-30.8-72.8-50-119.5-50c-52.3,0-99,23.9-129.8,61.3c-19-8.6-40-13.3-62.3-13.3
				c-39.7,0-75.8,15.2-102.8,40.1c-19.5-10.3-41.7-16.1-65.2-16.1c-45.7,0-86.3,21.9-111.9,55.8c-20.5-15-45.7-23.8-73-23.8
				c-39.5,0-74.6,18.4-97.3,47.1c-16.8-11.2-37-17.8-58.7-17.8c-37.8,0-71,19.8-89.8,49.6c-14.4-9.8-31.7-15.6-50.4-15.6
				c-14.2,0-27.6,3.4-39.5,9.3v64h1000V440.4z"/>
			
				<image overflow="visible" enable-background="new    " width="2000" height="404" xlink:href="8FF79F2B.png"  transform="matrix(0.5 0 0 0.5 0 429.375)">
			</image>
			
				<image overflow="visible" enable-background="new    " width="2000" height="316" xlink:href="8FF79F29.png"  transform="matrix(0.5 0 0 0.5 0 473.875)">
			</image>
			<g>
				
					<image overflow="visible" opacity="0.5" enable-background="new    " width="1950" height="494" xlink:href="8FF79F2F.png"  transform="matrix(0.5 0 0 0.499 20.5 391.6127)">
				</image>
				<g>
					
						<image overflow="visible" enable-background="new    " width="12" height="12" xlink:href="8FF79F28.png"  transform="matrix(0.5 0 0 0.5 655.5 563.375)">
					</image>
					<g>
						
							<image overflow="visible" enable-background="new    " width="51" height="30" xlink:href="8FF79F26.png"  transform="matrix(0.5 0 0 0.5 734.5 589.875)">
						</image>
						
							<image overflow="visible" enable-background="new    " width="12" height="12" xlink:href="8FF79F27.png"  transform="matrix(0.5 0 0 0.5 756 589.375)">
						</image>
					</g>
					<g>
						
							<image overflow="visible" enable-background="new    " width="51" height="30" xlink:href="8FF79F37.png"  transform="matrix(0.5 0 0 0.5 842.5 566.875)">
						</image>
						
							<image overflow="visible" enable-background="new    " width="12" height="12" xlink:href="8FF79F39.png"  transform="matrix(0.5 0 0 0.5 864 566.375)">
						</image>
					</g>
					<g>
						
							<image overflow="visible" enable-background="new    " width="51" height="30" xlink:href="8FF79F3B.png"  transform="matrix(0.5 0 0 0.5 742 520.375)">
						</image>
						
							<image overflow="visible" enable-background="new    " width="12" height="12" xlink:href="CECA0148.png"  transform="matrix(0.5 0 0 0.5 763.5 519.375)">
						</image>
					</g>
					<g>
						
							<image overflow="visible" enable-background="new    " width="51" height="30" xlink:href="CECA014F.png"  transform="matrix(0.5 0 0 0.5 808 436.375)">
						</image>
						
							<image overflow="visible" enable-background="new    " width="12" height="12" xlink:href="CECA0149.png"  transform="matrix(0.5 0 0 0.5 829.5 435.375)">
						</image>
					</g>
					<g>
						
							<image overflow="visible" enable-background="new    " width="51" height="30" xlink:href="CECA014B.png"  transform="matrix(0.5 0 0 0.5 897.5 517.375)">
						</image>
						
							<image overflow="visible" enable-background="new    " width="12" height="12" xlink:href="CECA0156.png"  transform="matrix(0.5 0 0 0.5 919 516.375)">
						</image>
					</g>
					<g>
						
							<image overflow="visible" enable-background="new    " width="51" height="29" xlink:href="CECA0157.png"  transform="matrix(0.5 0 0 0.5 957 512.875)">
						</image>
						
							<image overflow="visible" enable-background="new    " width="12" height="12" xlink:href="CECA0158.png"  transform="matrix(0.5 0 0 0.5 978.5 511.875)">
						</image>
					</g>
					<g>
						
							<image overflow="visible" enable-background="new    " width="51" height="30" xlink:href="CECA015B.png"  transform="matrix(0.5 0 0 0.5 610 491.875)">
						</image>
						
							<image overflow="visible" enable-background="new    " width="12" height="12" xlink:href="CECA0159.png"  transform="matrix(0.5 0 0 0.5 631.5 490.875)">
						</image>
					</g>
					
						<image overflow="visible" enable-background="new    " width="6" height="6" xlink:href="CECA015F.png"  transform="matrix(0.5 0 0 0.5 688.5 502.875)">
					</image>
					
						<image overflow="visible" enable-background="new    " width="6" height="6" xlink:href="CECA0173.png"  transform="matrix(0.5 0 0 0.5 779 395.375)">
					</image>
					
						<image overflow="visible" enable-background="new    " width="6" height="6" xlink:href="CECA017D.png"  transform="matrix(0.5 0 0 0.5 908.5 615.375)">
					</image>
					
						<image overflow="visible" enable-background="new    " width="6" height="6" xlink:href="CECA017F.png"  transform="matrix(0.5 0 0 0.5 625 521.875)">
					</image>
					
						<image overflow="visible" enable-background="new    " width="6" height="6" xlink:href="CECA0172.png"  transform="matrix(0.5 0 0 0.5 835 530.375)">
					</image>
					
						<image overflow="visible" enable-background="new    " width="6" height="7" xlink:href="CECA0171.png"  transform="matrix(0.5 0 0 0.5 942 456.875)">
					</image>
					
						<image overflow="visible" enable-background="new    " width="7" height="6" xlink:href="CECA0175.png"  transform="matrix(0.5 0 0 0.5 938 563.875)">
					</image>
					
						<image overflow="visible" enable-background="new    " width="7" height="6" xlink:href="CECA0177.png"  transform="matrix(0.5 0 0 0.5 897.5 418.375)">
					</image>
					
						<image overflow="visible" enable-background="new    " width="6" height="6" xlink:href="CECA0170.png"  transform="matrix(0.5 0 0 0.5 709.5 558.875)">
					</image>
					
						<image overflow="visible" enable-background="new    " width="6" height="6" xlink:href="CECA014E.png"  transform="matrix(0.5 0 0 0.5 133 558.875)">
					</image>
					
						<image overflow="visible" enable-background="new    " width="6" height="6" xlink:href="CECA016D.png"  transform="matrix(0.5 0 0 0.5 110.5 590.875)">
					</image>
					
						<image overflow="visible" enable-background="new    " width="6" height="7" xlink:href="CECA0192.png"  transform="matrix(0.5 0 0 0.5 154 614.875)">
					</image>
					
						<image overflow="visible" enable-background="new    " width="10" height="10" xlink:href="CECA01AD.png"  transform="matrix(0.5 0 0 0.5 821 620.375)">
					</image>
					
						<image overflow="visible" enable-background="new    " width="9" height="10" xlink:href="CECA01AE.png"  transform="matrix(0.5 0 0 0.5 967.5 610.875)">
					</image>
					
						<image overflow="visible" enable-background="new    " width="10" height="10" xlink:href="CECA01AC.png"  transform="matrix(0.5 0 0 0.5 868.5 480.375)">
					</image>
					
						<image overflow="visible" enable-background="new    " width="6" height="6" xlink:href="CECA01B2.png"  transform="matrix(0.5 0 0 0.5 755.5 487.875)">
					</image>
					<g>
						
							<image overflow="visible" enable-background="new    " width="52" height="30" xlink:href="CECA01B5.png"  transform="matrix(0.5 0 0 0.5 366 588.875)">
						</image>
						
							<image overflow="visible" enable-background="new    " width="12" height="12" xlink:href="CECA01B6.png"  transform="matrix(0.5 0 0 0.5 387.5 588.375)">
						</image>
					</g>
					<g>
						
							<image overflow="visible" enable-background="new    " width="51" height="30" xlink:href="CECA01B4.png"  transform="matrix(0.5 0 0 0.5 463.5 551.875)">
						</image>
						
							<image overflow="visible" enable-background="new    " width="12" height="12" xlink:href="CECA01B3.png"  transform="matrix(0.5 0 0 0.5 485 550.875)">
						</image>
					</g>
					<g>
						
							<image overflow="visible" enable-background="new    " width="51" height="30" xlink:href="CECA01BD.png"  transform="matrix(0.5 0 0 0.5 180.5 554.875)">
						</image>
						
							<image overflow="visible" enable-background="new    " width="12" height="12" xlink:href="CECA0199.png"  transform="matrix(0.5 0 0 0.5 202 553.875)">
						</image>
					</g>
					<g>
						
							<image overflow="visible" enable-background="new    " width="52" height="30" xlink:href="CECA019B.png"  transform="matrix(0.5 0 0 0.5 291.5 590.375)">
						</image>
						
							<image overflow="visible" enable-background="new    " width="12" height="12" xlink:href="CECA0198.png"  transform="matrix(0.5 0 0 0.5 313.5 589.375)">
						</image>
					</g>
					<g>
						
							<image overflow="visible" enable-background="new    " width="51" height="30" xlink:href="CECA019F.png"  transform="matrix(0.5 0 0 0.5 550.5 567.875)">
						</image>
						
							<image overflow="visible" enable-background="new    " width="12" height="12" xlink:href="CECA019A.png"  transform="matrix(0.5 0 0 0.5 572 566.875)">
						</image>
					</g>
					<g>
						
							<image overflow="visible" enable-background="new    " width="52" height="30" xlink:href="CECA0186.png"  transform="matrix(0.5 0 0 0.5 332 522.875)">
						</image>
						
							<image overflow="visible" enable-background="new    " width="12" height="12" xlink:href="CECA0187.png"  transform="matrix(0.5 0 0 0.5 353.5 522.375)">
						</image>
					</g>
					
						<image overflow="visible" enable-background="new    " width="6" height="6" xlink:href="CECA0197.png"  transform="matrix(0.5 0 0 0.5 540.5 614.375)">
					</image>
					
						<image overflow="visible" enable-background="new    " width="53" height="44" xlink:href="CECA0189.png"  transform="matrix(0.5 0 0 0.5 467 510.875)">
					</image>
					
						<image overflow="visible" enable-background="new    " width="7" height="6" xlink:href="CECA018B.png"  transform="matrix(0.5 0 0 0.5 419 557.875)">
					</image>
					
						<image overflow="visible" enable-background="new    " width="7" height="6" xlink:href="CECA01E4.png"  transform="matrix(0.5 0 0 0.5 556 527.375)">
					</image>
					<g>
						
							<image overflow="visible" enable-background="new    " width="52" height="30" xlink:href="CECA01E3.png"  transform="matrix(0.5 0 0 0.5 32.5 577.375)">
						</image>
						
							<image overflow="visible" enable-background="new    " width="12" height="12" xlink:href="CECA01EC.png"  transform="matrix(0.5 0 0 0.5 54 576.875)">
						</image>
					</g>
					
						<image overflow="visible" enable-background="new    " width="6" height="7" xlink:href="CECA01EF.png"  transform="matrix(0.5 0 0 0.5 24.5 622.875)">
					</image>
					
						<image overflow="visible" enable-background="new    " width="6" height="6" xlink:href="CECA01ED.png"  transform="matrix(0.5 0 0 0.5 73.5 623.875)">
					</image>
					
						<image overflow="visible" enable-background="new    " width="10" height="9" xlink:href="CECA01E2.png"  transform="matrix(0.5 0 0 0.5 452.5 619.875)">
					</image>
					
						<image overflow="visible" enable-background="new    " width="9" height="10" xlink:href="CECA01E5.png"  transform="matrix(0.5 0 0 0.5 244.5 591.875)">
					</image>
					
						<image overflow="visible" enable-background="new    " width="6" height="7" xlink:href="CECA01E7.png"  transform="matrix(0.5 0 0 0.5 343.5 569.375)">
					</image>
				</g>
			</g>
		</g>
		<g>
			
				<image overflow="visible" opacity="0.5" enable-background="new    " width="215" height="216" xlink:href="CECA01E0.png"  transform="matrix(0.5 0 0 0.4977 867.5 369.6127)">
			</image>
			<g>
				<g>
					
						<linearGradient id="SVGID_4_" gradientUnits="userSpaceOnUse" x1="1746.3" y1="895.1" x2="1930.7" y2="895.1" gradientTransform="matrix(0.5 0 0 -0.5 0 868.875)">
						<stop  offset="0" style="stop-color:#C7DC87"/>
						<stop  offset="1.667757e-002" style="stop-color:#C8DD89"/>
						<stop  offset="0.3815" style="stop-color:#E0E8AF"/>
						<stop  offset="0.5728" style="stop-color:#E9EDBE"/>
						<stop  offset="0.72" style="stop-color:#E9EDC1"/>
						<stop  offset="0.8446" style="stop-color:#EBEFCC"/>
						<stop  offset="0.9607" style="stop-color:#EDF1DD"/>
						<stop  offset="1" style="stop-color:#EEF2E5"/>
					</linearGradient>
					<circle fill="url(#SVGID_4_)" cx="919.3" cy="421.3" r="46.1"/>
				</g>
				<g>
					
						<image overflow="visible" opacity="0.3" enable-background="new    " width="36" height="37" xlink:href="CECA01E1.png"  transform="matrix(0.5 0 0 0.4865 907.5 383.1127)">
					</image>
					<g>
						
							<linearGradient id="SVGID_5_" gradientUnits="userSpaceOnUse" x1="1820.1" y1="954.4" x2="1843.6635" y2="954.4" gradientTransform="matrix(0.5 0 0 -0.5 0 868.875)">
							<stop  offset="0" style="stop-color:#A9AC66"/>
							<stop  offset="0.1066" style="stop-color:#B0B377"/>
							<stop  offset="0.3572" style="stop-color:#BFC298"/>
							<stop  offset="0.5961" style="stop-color:#CACDB0"/>
							<stop  offset="0.8163" style="stop-color:#D1D4BF"/>
							<stop  offset="1" style="stop-color:#D3D6C4"/>
						</linearGradient>
						<circle fill="url(#SVGID_5_)" cx="916" cy="391.7" r="5.9"/>
					</g>
				</g>
				<g>
					
						<image overflow="visible" opacity="0.3" enable-background="new    " width="27" height="28" xlink:href="CECA01C7.png"  transform="matrix(0.5 0 0 0.4821 923.5 440.6127)">
					</image>
					<g>
						
							<linearGradient id="SVGID_6_" gradientUnits="userSpaceOnUse" x1="1852.6827" y1="844.4" x2="1866.7467" y2="844.4" gradientTransform="matrix(0.5 0 0 -0.5 0 868.875)">
							<stop  offset="0" style="stop-color:#A9AC66"/>
							<stop  offset="0.1066" style="stop-color:#B0B377"/>
							<stop  offset="0.3572" style="stop-color:#BFC298"/>
							<stop  offset="0.5961" style="stop-color:#CACDB0"/>
							<stop  offset="0.8163" style="stop-color:#D1D4BF"/>
							<stop  offset="1" style="stop-color:#D3D6C4"/>
						</linearGradient>
						<circle fill="url(#SVGID_6_)" cx="929.8" cy="446.7" r="3.5"/>
					</g>
				</g>
				<g>
					
						<image overflow="visible" opacity="0.3" enable-background="new    " width="23" height="23" xlink:href="CECA01C1.png"  transform="matrix(0.5 0 0 0.4783 904.5 428.6127)">
					</image>
					<g>
						
							<linearGradient id="SVGID_7_" gradientUnits="userSpaceOnUse" x1="1814.4207" y1="870.3" x2="1824.011" y2="870.3" gradientTransform="matrix(0.5 0 0 -0.5 0 868.875)">
							<stop  offset="0" style="stop-color:#A9AC66"/>
							<stop  offset="0.1066" style="stop-color:#B0B377"/>
							<stop  offset="0.3572" style="stop-color:#BFC298"/>
							<stop  offset="0.5961" style="stop-color:#CACDB0"/>
							<stop  offset="0.8163" style="stop-color:#D1D4BF"/>
							<stop  offset="1" style="stop-color:#D3D6C4"/>
						</linearGradient>
						<ellipse fill="url(#SVGID_7_)" cx="909.6" cy="433.7" rx="2.4" ry="2.2"/>
					</g>
				</g>
				<g>
					
						<image overflow="visible" opacity="0.3" enable-background="new    " width="24" height="25" xlink:href="CECA01C3.png"  transform="matrix(0.5 0 0 0.48 886 438.1127)">
					</image>
					<g>
						
							<linearGradient id="SVGID_8_" gradientUnits="userSpaceOnUse" x1="1777.5459" y1="850.5" x2="1788.05" y2="850.5" gradientTransform="matrix(0.5 0 0 -0.5 0 868.875)">
							<stop  offset="0" style="stop-color:#A9AC66"/>
							<stop  offset="0.1066" style="stop-color:#B0B377"/>
							<stop  offset="0.3572" style="stop-color:#BFC298"/>
							<stop  offset="0.5961" style="stop-color:#CACDB0"/>
							<stop  offset="0.8163" style="stop-color:#D1D4BF"/>
							<stop  offset="1" style="stop-color:#D3D6C4"/>
						</linearGradient>
						<ellipse fill="url(#SVGID_8_)" cx="891.4" cy="443.6" rx="2.7" ry="2.7"/>
					</g>
				</g>
				<g>
					
						<image overflow="visible" opacity="0.3" enable-background="new    " width="20" height="20" xlink:href="CECA01BE.png"  transform="matrix(0.5 0 0 0.475 922 407.6127)">
					</image>
					<g>
						
							<linearGradient id="SVGID_9_" gradientUnits="userSpaceOnUse" x1="1849.2999" y1="914.3" x2="1856.0686" y2="914.3" gradientTransform="matrix(0.5 0 0 -0.5 0 868.875)">
							<stop  offset="0" style="stop-color:#A9AC66"/>
							<stop  offset="0.1066" style="stop-color:#B0B377"/>
							<stop  offset="0.3572" style="stop-color:#BFC298"/>
							<stop  offset="0.5961" style="stop-color:#CACDB0"/>
							<stop  offset="0.8163" style="stop-color:#D1D4BF"/>
							<stop  offset="1" style="stop-color:#D3D6C4"/>
						</linearGradient>
						<ellipse fill="url(#SVGID_9_)" cx="926.3" cy="411.7" rx="1.7" ry="1.5"/>
					</g>
				</g>
				<g>
					
						<image overflow="visible" opacity="0.3" enable-background="new    " width="22" height="25" xlink:href="CECA01BF.png"  transform="matrix(0.5 0 0 0.48 891 407.6127)">
					</image>
					<g>
						
							<linearGradient id="SVGID_10_" gradientUnits="userSpaceOnUse" x1="1787.1879" y1="911.6" x2="1796.9199" y2="911.6" gradientTransform="matrix(0.5 0 0 -0.5 0 868.875)">
							<stop  offset="0" style="stop-color:#A9AC66"/>
							<stop  offset="0.1066" style="stop-color:#B0B377"/>
							<stop  offset="0.3572" style="stop-color:#BFC298"/>
							<stop  offset="0.5961" style="stop-color:#CACDB0"/>
							<stop  offset="0.8163" style="stop-color:#D1D4BF"/>
							<stop  offset="1" style="stop-color:#D3D6C4"/>
						</linearGradient>
						<ellipse fill="url(#SVGID_10_)" cx="896" cy="413.1" rx="2.5" ry="2.7"/>
					</g>
				</g>
				<g>
					
						<image overflow="visible" opacity="0.3" enable-background="new    " width="19" height="20" xlink:href="CECA0241.png"  transform="matrix(0.5 0 0 0.475 939.5 431.6127)">
					</image>
					<g>
						
							<linearGradient id="SVGID_11_" gradientUnits="userSpaceOnUse" x1="1884.889" y1="866" x2="1890.4065" y2="866" gradientTransform="matrix(0.5 0 0 -0.5 0 868.875)">
							<stop  offset="0" style="stop-color:#A9AC66"/>
							<stop  offset="0.1066" style="stop-color:#B0B377"/>
							<stop  offset="0.3572" style="stop-color:#BFC298"/>
							<stop  offset="0.5961" style="stop-color:#CACDB0"/>
							<stop  offset="0.8163" style="stop-color:#D1D4BF"/>
							<stop  offset="1" style="stop-color:#D3D6C4"/>
						</linearGradient>
						<ellipse fill="url(#SVGID_11_)" cx="943.8" cy="435.9" rx="1.4" ry="1.4"/>
					</g>
				</g>
				<g>
					
						<image overflow="visible" opacity="0.3" enable-background="new    " width="25" height="27" xlink:href="CECA0243.png"  transform="matrix(0.5 0 0 0.4815 940 406.6127)">
					</image>
					<g>
						
							<linearGradient id="SVGID_12_" gradientUnits="userSpaceOnUse" x1="1885.4541" y1="912.5" x2="1897.6404" y2="912.5" gradientTransform="matrix(0.5 0 0 -0.5 0 868.875)">
							<stop  offset="0" style="stop-color:#A9AC66"/>
							<stop  offset="0.1066" style="stop-color:#B0B377"/>
							<stop  offset="0.3572" style="stop-color:#BFC298"/>
							<stop  offset="0.5961" style="stop-color:#CACDB0"/>
							<stop  offset="0.8163" style="stop-color:#D1D4BF"/>
							<stop  offset="1" style="stop-color:#D3D6C4"/>
						</linearGradient>
						<ellipse fill="url(#SVGID_12_)" cx="945.8" cy="412.6" rx="3" ry="3.1"/>
					</g>
				</g>
			</g>
		</g>
		<g>
			
				<image overflow="visible" opacity="0.5" enable-background="new    " width="119" height="127" xlink:href="CECA0246.png"  transform="matrix(0.5 0 0 0.4961 278.5 474.1127)">
			</image>
			<g>
				<g>
					<g>
						
							<rect x="302.7" y="497.1" transform="matrix(-0.5447 -0.8386 0.8386 -0.5447 51.5168 1025.358)" fill="#F0EFE3" width="2.8" height="3.1"/>
					</g>
					
						<image overflow="visible" enable-background="new    " width="9" height="9" xlink:href="CECA0247.png"  transform="matrix(0.5 0 0 0.5 302 496.375)">
					</image>
					
						<image overflow="visible" enable-background="new    " width="7" height="5" xlink:href="CECA0242.png"  transform="matrix(0.5 0 0 0.5 303 498.375)">
					</image>
					
						<image overflow="visible" enable-background="new    " width="7" height="6" xlink:href="CECA0266.png"  transform="matrix(0.5 0 0 0.5 302 496.375)">
					</image>
				</g>
				<g>
					<g>
						
							<rect x="309.6" y="507.8" transform="matrix(0.5447 0.8386 -0.8386 0.5447 568.7486 -28.9468)" fill="#F0EFE3" width="2.8" height="3.1"/>
					</g>
					
						<image overflow="visible" enable-background="new    " width="9" height="9" xlink:href="CECA0269.png"  transform="matrix(0.5 0 0 0.5 308.5 506.875)">
					</image>
					
						<image overflow="visible" enable-background="new    " width="7" height="6" xlink:href="CECA026A.png"  transform="matrix(0.5 0 0 0.5 308.5 506.875)">
					</image>
					
						<image overflow="visible" enable-background="new    " width="7" height="5" xlink:href="CECA0268.png"  transform="matrix(0.5 0 0 0.5 310 508.875)">
					</image>
				</g>
				<g>
					<g>
						
							<rect x="318.4" y="493" transform="matrix(-0.5447 -0.8386 0.8386 -0.5447 80.7645 1034.1531)" fill="#F0EFE3" width="5.5" height="4.3"/>
					</g>
					
						<image overflow="visible" enable-background="new    " width="14" height="14" xlink:href="CECA026E.png"  transform="matrix(0.5 0 0 0.5 317.5 491.875)">
					</image>
					
						<image overflow="visible" enable-background="new    " width="10" height="8" xlink:href="CECA026B.png"  transform="matrix(0.5 0 0 0.5 319.5 494.875)">
					</image>
				</g>
				<g>
					<g>
						<g>
							<path fill="#F0EFE3" d="M297.4,513.5l-2.5-3.9c-0.5-0.7-0.3-1.6,0.5-2l0,0c0.7-0.5,1.6-0.3,2,0.4l2.5,3.9
								c0.5,0.7,0.3,1.6-0.5,2l0,0C298.7,514.4,297.8,514.2,297.4,513.5z"/>
						</g>
						
							<image overflow="visible" enable-background="new    " width="11" height="13" xlink:href="CECA0276.png"  transform="matrix(0.5 0 0 0.5 295 507.875)">
						</image>
						
							<image overflow="visible" enable-background="new    " width="6" height="6" xlink:href="CECA0277.png"  transform="matrix(0.5 0 0 0.5 297 511.375)">
						</image>
					</g>
					
						<image overflow="visible" enable-background="new    " width="32" height="25" xlink:href="CECA0267.png"  transform="matrix(0.5 0 0 0.5 281.5 508.875)">
					</image>
					
						<image overflow="visible" enable-background="new    " width="11" height="14" xlink:href="CECA0279.png"  transform="matrix(0.5 0 0 0.5 293 508.375)">
					</image>
				</g>
				<g>
					<g>
						<g>
							<path fill="#F0EFE3" d="M323.6,499.9l-6-9.2c-0.7-1.1,0,2-1,2.7l-3,1.9c-1-0.3-2.2-0.1-3.1,0.5l-13.3,8.6
								c-1,0.7-1.6,1.8-1.8,2.9c0,0.1,0.1,0.1,0.1,0.1l3.9,6c0,0,0,0.1,0.1,0.2c1.1,0.4,2.4,0.3,3.4-0.4l13.3-8.6
								c1-0.6,1.5-1.6,1.7-2.7l3-1.9C322,499.4,324.4,501,323.6,499.9z"/>
						</g>
						
							<image overflow="visible" enable-background="new    " width="56" height="46" xlink:href="CECA0215.png"  transform="matrix(0.5 0 0 0.5 296 491.375)">
						</image>
						
							<image overflow="visible" enable-background="new    " width="52" height="36" xlink:href="CECA0217.png"  transform="matrix(0.5 0 0 0.5 298 496.375)">
						</image>
					</g>
					
						<image overflow="visible" enable-background="new    " width="15" height="20" xlink:href="CECA0214.png"  transform="matrix(0.5 0 0 0.5 309.5 495.375)">
					</image>
					
						<image overflow="visible" enable-background="new    " width="15" height="20" xlink:href="CECA021B.png"  transform="matrix(0.5 0 0 0.5 296.5 503.875)">
					</image>
					
						<image overflow="visible" enable-background="new    " width="14" height="19" xlink:href="CECA021D.png"  transform="matrix(0.5 0 0 0.5 298 503.375)">
					</image>
					
						<image overflow="visible" enable-background="new    " width="14" height="20" xlink:href="CECA021F.png"  transform="matrix(0.5 0 0 0.5 317 490.375)">
					</image>
				</g>
				<g>
					<g>
						<path fill="#E2E2E2" d="M324.8,492.8L324.8,492.8c-0.4-0.6-0.2-1.4,0.4-1.8l1.2-0.8c0.6-0.4,1.4-0.2,1.8,0.4l0,0
							c0.4,0.6,0.2,1.4-0.4,1.8l-1.2,0.8C325.9,493.5,325.1,493.4,324.8,492.8z"/>
						
							<image overflow="visible" enable-background="new    " width="7" height="7" xlink:href="CECA021C.png"  transform="matrix(0.5 0 0 0.5 325 489.875)">
						</image>
						
							<image overflow="visible" enable-background="new    " width="6" height="5" xlink:href="CECA0216.png"  transform="matrix(0.5 0 0 0.5 325.5 490.875)">
						</image>
					</g>
					<g>
						<path fill="#E2E2E2" d="M321.3,483.5c-1.8,3.5-1.8,7.9,0.5,11.5c2.3,3.5,6.3,5.4,10.2,5.1L321.3,483.5z"/>
						
							<image overflow="visible" enable-background="new    " width="23" height="31" xlink:href="CECA0211.png"  transform="matrix(0.5 0 0 0.5 320.5 484.875)">
						</image>
						
							<image overflow="visible" enable-background="new    " width="19" height="9" xlink:href="CECA0212.png"  transform="matrix(0.5 0 0 0.5 322.5 495.875)">
						</image>
					</g>
					
						<image overflow="visible" enable-background="new    " width="23" height="34" xlink:href="CECA0230.png"  transform="matrix(0.5 0 0 0.5 320.5 483.375)">
					</image>
				</g>
				
					<image overflow="visible" enable-background="new    " width="43" height="48" xlink:href="CECA0237.png"  transform="matrix(0.5 0 0 0.5 306.5 506.875)">
				</image>
				<g>
					
						<rect x="307.1" y="513.4" transform="matrix(-0.5447 -0.8386 0.8386 -0.5447 54.9523 1067.5428)" fill="#80A3C1" width="20.2" height="10.8"/>
				</g>
				<g>
					
						<rect x="310" y="515" transform="matrix(-0.5447 -0.8386 0.8386 -0.5447 55.2299 1070.822)" fill="#B4C8DB" width="16.6" height="10.8"/>
				</g>
				<g>
					
						<rect x="313.3" y="516.8" transform="matrix(-0.5447 -0.8386 0.8386 -0.5447 55.5072 1074.5417)" fill="#80A3C1" width="12.3" height="10.8"/>
				</g>
				<g>
					
						<rect x="316.5" y="518.5" transform="matrix(-0.5447 -0.8386 0.8386 -0.5447 55.7379 1078.0643)" fill="#B4C8DB" width="8.1" height="10.8"/>
				</g>
				<g>
					
						<rect x="319.8" y="520.3" transform="matrix(-0.5447 -0.8386 0.8386 -0.5447 56.0774 1081.8541)" fill="#80A3C1" width="3.7" height="10.8"/>
				</g>
				
					<image overflow="visible" enable-background="new    " width="39" height="40" xlink:href="CECA0231.png"  transform="matrix(0.5 0 0 0.5 307 510.375)">
				</image>
				
					<image overflow="visible" enable-background="new    " width="30" height="32" xlink:href="CECA0233.png"  transform="matrix(0.5 0 0 0.5 307 512.875)">
				</image>
				
					<image overflow="visible" enable-background="new    " width="42" height="48" xlink:href="CECA020E.png"  transform="matrix(0.5 0 0 0.5 287.5 476.875)">
				</image>
				<g>
					
						<rect x="287.8" y="483.6" transform="matrix(-0.5447 -0.8386 0.8386 -0.5447 50.0508 1005.2962)" fill="#80A3C1" width="20.2" height="10.8"/>
				</g>
				<g>
					
						<rect x="290.6" y="485.2" transform="matrix(-0.5447 -0.8386 0.8386 -0.5447 50.3286 1008.5754)" fill="#B4C8DB" width="16.6" height="10.8"/>
				</g>
				<g>
					
						<rect x="293.9" y="487" transform="matrix(-0.5447 -0.8386 0.8386 -0.5447 50.6058 1012.2951)" fill="#80A3C1" width="12.3" height="10.8"/>
				</g>
				<g>
					
						<rect x="297.1" y="488.6" transform="matrix(-0.5447 -0.8386 0.8386 -0.5447 50.8294 1015.7302)" fill="#B4C8DB" width="8.1" height="10.8"/>
				</g>
				<g>
					
						<rect x="300.5" y="490.5" transform="matrix(-0.5447 -0.8386 0.8386 -0.5447 51.176 1019.6075)" fill="#80A3C1" width="3.7" height="10.8"/>
				</g>
				
					<image overflow="visible" enable-background="new    " width="8" height="7" xlink:href="CECA020F.png"  transform="matrix(0.5 0 0 0.5 296.5 496.875)">
				</image>
				
					<image overflow="visible" enable-background="new    " width="35" height="38" xlink:href="CECA0210.png"  transform="matrix(0.5 0 0 0.5 287.5 481.875)">
				</image>
			</g>
		</g>
	</g>
</g>
</svg>
