<svg version="1.1" id="Capa_1" xmlns="http://www.w3.org/2000/svg" x="0" y="0" viewBox="0 228 800 349" xml:space="preserve"><g fill="#FFF"><path d="M153 441.4c0 8-5.8 14.3-13.3 15.9H137c-9 0-15.9-7.4-15.9-15.9v-2.7c1.1-7.4 8-13.3 15.9-13.3 9.1-.4 16 7 16 16zm120.6-136L238 341c-26-26-61.6-42.5-101.5-42.5S60.6 315 35.1 341L0 306c35.1-35.6 83.4-57.4 137.1-57.4s101.9 21.8 136.5 56.8z"/><path d="M137.1 333.6c-30.3 0-57.4 12.2-77 32.4l28.7 28.7C101 382 118 374 137.1 374c18.6 0 35.6 8 47.8 20.2l28.7-28.7c-19.7-19.7-46.8-31.9-76.5-31.9z"/><path d="M206.1 523.2l23.4 23.4h-44.6l-6.4-6.4c-6.9 3.2-14.3 5.3-22.3 6.4-6.4 1.1-12.7 1.6-19.7 1.6s-13.3-.5-19.7-1.6c-49.9-9-88.2-53.1-88.2-105.7 0-22.8 6.9-43.6 19.1-61.1L77 409c-3.7 6.9-6.4 14.9-7.4 22.8-.5 3.2-.5 5.8-.5 9 0 37.2 30.3 66.9 66.9 66.9 3.2 0 6.4 0 9-.5 11.7-1.6 22.3-6.4 31.3-12.7 15.9-12.2 26.6-31.9 26.6-53.7 0-11.7-3.2-22.8-8.5-32.4l29.2-29.2c12.2 17.5 19.7 38.8 19.7 61.6 1.1 33.6-13.8 62.8-37.2 82.4z"/></g><path fill="#FFF" d="M306 546.6h-35.1V425.5H306v19.1c5.8-8 11.7-13.8 18.6-17.5 6.4-3.7 13.8-5.3 22.3-5.3 10.1 0 18.1 2.1 24.4 6.4s10.6 10.1 13.3 18.6c5.8-8.5 12.2-14.3 19.1-18.6 6.9-4.2 14.9-6.4 23.4-6.4s15.9 1.6 21.8 4.8c5.8 3.2 10.6 8 13.8 14.3 1.6 3.7 3.2 7.4 3.7 11.7s1.1 11.2 1.1 20.2v74.9h-35.1v-61.1c0-14.9-1.6-24.4-4.8-29.2-3.2-4.8-8.5-7.4-15.9-7.4-9 0-15.4 3.2-19.7 10.1-4.2 6.9-6.4 18.1-6.4 32.9v53.7h-35.1v-60c0-14.3-1.6-23.9-4.2-29.2-2.7-4.8-7.4-7.4-14.3-7.4-9.6 0-15.9 3.2-20.2 10.1-4.2 6.9-6.4 17.5-6.4 32.9v53.7h.6zm306.5 0h-34l.5-17.5c-4.8 7.4-10.6 13.3-17.5 17-6.9 3.7-14.9 5.3-24.4 5.3-15.9 0-29.2-5.8-38.8-18.1-10.1-12.2-14.9-27.6-14.9-47.3 0-20.7 4.8-36.7 14.3-47.8 9.6-11.7 23.4-17 40.4-17 9 0 17 2.1 23.9 5.8 6.9 4.2 12.7 10.1 17 18.1V425h33.5v121.6zm-32.4-60.5c0-11.2-2.7-19.7-8-26s-12.7-9.6-22.3-9.6c-9.6 0-17 3.2-22.8 9.6-5.3 6.4-8 14.9-8 26 0 11.2 2.7 19.7 8 25.5 5.3 5.8 12.7 9 22.3 9 9.6 0 17.5-3.2 22.8-9 5.3-6.4 8-14.9 8-25.5zm81.8-29.8c3.7-11.7 8.5-20.7 15.4-26.6 6.9-5.8 14.9-9 24.4-9 2.1 0 5.8.5 11.2 1.1 1.1 0 1.6.5 2.1.5l-5.3 37.7c-2.7-1.1-5.3-2.1-8-2.7-2.7-.5-5.3-1.1-8.5-1.1-10.6 0-18.6 2.7-23.4 8-4.8 5.3-6.9 14.9-6.9 27.6v53.7h-35.1v-120h34.5l-.4 30.8zm86 90.3v-93.5h-17v-27.6h17v-40.4H783v40.4h17v27.6h-17v94h-35.1v-.5z"/></svg>