<?xml version="1.0" encoding="utf-8"?>
<!-- Generator: Adobe Illustrator 18.0.0, SVG Export Plug-In . SVG Version: 6.00 Build 0)  -->
<svg version="1.2" baseProfile="tiny" id="Capa_1" xmlns="http://www.w3.org/2000/svg" xmlns:xlink="http://www.w3.org/1999/xlink"
	 x="0px" y="0px" viewBox="0 612 1000 388" xml:space="preserve">
<g>
	<g>
		<g>
			<g>
				<linearGradient id="SVGID_1_" gradientUnits="userSpaceOnUse" x1="151.0491" y1="860.1716" x2="191.0737" y2="860.1716">
					<stop  offset="0" style="stop-color:#F7B733"/>
					<stop  offset="1" style="stop-color:#FC4A1A"/>
				</linearGradient>
				<path fill="url(#SVGID_1_)" d="M191.1,860.2c0,9.9-7.1,18.1-16.5,19.7c-1.1,0.2-2.3,0.3-3.5,0.3c-11.1,0-20-9-20-20
					c0-1.2,0.1-2.4,0.3-3.5c1.7-9.4,9.8-16.5,19.7-16.5C182.1,840.2,191.1,849.1,191.1,860.2z"/>
				<linearGradient id="SVGID_2_" gradientUnits="userSpaceOnUse" x1="-9.213657e-005" y1="677.6116" x2="341.7442" y2="677.6116">
					<stop  offset="0" style="stop-color:#F7B733"/>
					<stop  offset="1" style="stop-color:#FC4A1A"/>
				</linearGradient>
				<path fill="url(#SVGID_2_)" d="M341.7,690.8l-44.2,44.2c-32.2-32.6-77-52.8-126.4-52.8c-49.6,0-94.5,20.3-126.8,53.2L0,691.2
					c43.6-44.1,104.1-71.5,171.1-71.5C237.8,619.7,298.2,646.9,341.7,690.8z"/>
				<linearGradient id="SVGID_3_" gradientUnits="userSpaceOnUse" x1="75.1087" y1="763.9678" x2="266.6354" y2="763.9678">
					<stop  offset="0" style="stop-color:#F7B733"/>
					<stop  offset="1" style="stop-color:#FC4A1A"/>
				</linearGradient>
				<path fill="url(#SVGID_3_)" d="M171.1,726c-37.6,0-71.6,15.5-96,40.4l35.6,35.6c15.2-15.8,36.6-25.6,60.3-25.6
					c23.5,0,44.7,9.7,59.9,25.2l35.6-35.6C242.3,741.3,208.5,726,171.1,726z"/>
				<linearGradient id="SVGID_4_" gradientUnits="userSpaceOnUse" x1="36.8544" y1="888.7758" x2="305.2766" y2="888.7758">
					<stop  offset="0" style="stop-color:#F7B733"/>
					<stop  offset="1" style="stop-color:#FC4A1A"/>
				</linearGradient>
				<path fill="url(#SVGID_4_)" d="M257.5,962.8l29.3,29.3h-55.5l-8.3-8.3c-8.8,3.7-18.1,6.5-27.7,8.3c-7.9,1.4-16,2.2-24.3,2.2
					c-8.3,0-16.4-0.8-24.3-2.2C84.2,980.7,36.9,926,36.9,860.2c0-28.4,8.8-54.7,23.8-76.3l36.6,36.6c-4.7,8.7-7.9,18.2-9.2,28.4
					c-0.5,3.7-0.8,7.5-0.8,11.4c0,46.3,37.5,83.8,83.8,83.8c3.9,0,7.6-0.3,11.4-0.8c14.6-2,28-7.7,39.2-16.2
					c20.2-15.3,33.2-39.5,33.2-66.8c0-14.7-3.8-28.5-10.4-40.5l36.5-36.5c15.3,21.8,24.3,48.3,24.3,77
					C305.3,901.4,286.7,938.2,257.5,962.8z"/>
			</g>
			<g>
				<path d="M382.1,992h-44V840.4h44v23.8c7.2-10,14.9-17.3,23.1-21.9c8.2-4.6,17.5-7,27.9-7c12.6,0,22.8,2.6,30.7,7.7
					c7.9,5.2,13.5,12.9,16.8,23.3c7-10.3,15-18.1,23.9-23.3c8.9-5.2,18.7-7.8,29.3-7.8c10.7,0,19.8,2,27.3,5.9
					c7.5,4,13.3,9.9,17.4,17.8c2.2,4.3,3.7,9.2,4.6,14.7c0.9,5.5,1.4,13.8,1.4,24.9v4.8V992h-44V917c0-18.4-1.9-30.7-5.6-36.8
					c-3.8-6.1-10.3-9.1-19.7-9.1c-11.3,0-19.5,4.2-24.6,12.7c-5.1,8.4-7.6,22.3-7.6,41.4V992h-44V917c0-17.8-1.8-29.9-5.3-36.2
					c-3.5-6.3-9.5-9.4-18.1-9.4c-11.6,0-20.1,4.2-25.3,12.7c-5.3,8.5-7.9,22.2-7.9,41V992z"/>
			</g>
			<path d="M764.5,992h-42.6l0.6-21.8c-6,9.6-13.2,16.6-21.6,21.1c-8.4,4.5-18.6,6.7-30.7,6.7c-20.1,0-36.3-7.5-48.6-22.4
				c-12.3-14.9-18.5-34.7-18.5-59.2c0-25.5,6.1-45.5,18.2-59.7c12.1-14.3,28.9-21.4,50.4-21.4c11.2,0,21.1,2.5,29.6,7.6
				c8.5,5,15.6,12.6,21.4,22.6v-25h41.7V992z M724.3,916c0-13.6-3.4-24.4-10.3-32.3c-6.9-7.9-16.1-11.9-27.7-11.9
				c-12,0-21.3,3.9-28.2,11.8c-6.9,7.9-10.3,18.7-10.3,32.4c0,13.7,3.4,24.4,10.1,32c6.7,7.6,16.1,11.4,28,11.4
				c12.2,0,21.6-3.8,28.3-11.4C721,940.3,724.3,929.7,724.3,916z"/>
			<path d="M826.4,879.3c4.4-14.7,10.8-25.8,19.1-33.1c8.3-7.3,18.6-11,30.8-11c2.8,0,7.4,0.5,13.8,1.5c1.2,0.2,2.2,0.4,2.8,0.5
				l-6.6,47.3c-3.3-1.3-6.6-2.3-10-3c-3.3-0.7-6.9-1-10.6-1c-13.4,0-23,3.4-28.9,10.3c-5.9,6.9-8.8,18.3-8.8,34.4V992h-44V840.4
				h43.4L826.4,879.3z"/>
			<path d="M933.4,992V874.9h-21.2v-34.5h21.2V790h44v50.4h21.2v34.5h-21.2V992H933.4z"/>
		</g>
	</g>
</g>
</svg>
