<svg version="1.1" id="Capa_1" xmlns="http://www.w3.org/2000/svg" x="0" y="0" viewBox="0 0 150.6 57" xml:space="preserve"><linearGradient id="SVGID_1_" gradientUnits="userSpaceOnUse" x1="22.778" y1="36.256" x2="28.813" y2="36.256"><stop offset="0" stop-color="#ffb719"/><stop offset="1" stop-color="#ff490d"/></linearGradient><path fill="url(#SVGID_1_)" d="M28.8 36.3c0 1.5-1.1 2.7-2.5 3h-.5c-1.7 0-3-1.4-3-3v-.5c.2-1.4 1.5-2.5 3-2.5 1.7-.1 3 1.3 3 3z"/><linearGradient id="SVGID_2_" gradientUnits="userSpaceOnUse" x1="0" y1="8.726" x2="51.534" y2="8.726"><stop offset="0" stop-color="#ffb719"/><stop offset="1" stop-color="#ff490d"/></linearGradient><path fill="url(#SVGID_2_)" d="M51.5 10.7l-6.7 6.7c-4.9-4.9-11.6-8-19.1-8-7.5 0-14.3 3.1-19.1 8L0 10.8C6.6 4.1 15.7 0 25.8 0 35.9 0 45 4.1 51.5 10.7z"/><linearGradient id="SVGID_3_" gradientUnits="userSpaceOnUse" x1="11.326" y1="21.748" x2="40.208" y2="21.748"><stop offset="0" stop-color="#ffb719"/><stop offset="1" stop-color="#ff490d"/></linearGradient><path fill="url(#SVGID_3_)" d="M25.8 16c-5.7 0-10.8 2.3-14.5 6.1l5.4 5.4c2.3-2.4 5.5-3.9 9.1-3.9 3.5 0 6.7 1.5 9 3.8l5.4-5.4c-3.7-3.7-8.8-6-14.4-6z"/><linearGradient id="SVGID_4_" gradientUnits="userSpaceOnUse" x1="5.558" y1="40.569" x2="46.035" y2="40.569"><stop offset="0" stop-color="#ffb719"/><stop offset="1" stop-color="#ff490d"/></linearGradient><path fill="url(#SVGID_4_)" d="M38.8 51.7l4.4 4.4h-8.4l-1.2-1.2c-1.3.6-2.7 1-4.2 1.2-1.2.2-2.4.3-3.7.3-1.3 0-2.5-.1-3.7-.3-9.4-1.7-16.6-10-16.6-19.9 0-4.3 1.3-8.2 3.6-11.5l5.5 5.5c-.7 1.3-1.2 2.8-1.4 4.3-.1.6-.1 1.1-.1 1.7 0 7 5.7 12.6 12.6 12.6.6 0 1.2 0 1.7-.1 2.2-.3 4.2-1.2 5.9-2.4 3-2.3 5-6 5-10.1 0-2.2-.6-4.3-1.6-6.1l5.5-5.5c2.3 3.3 3.7 7.3 3.7 11.6.2 6.3-2.6 11.8-7 15.5z"/><path d="M57.6 56.1H51V33.3h6.6v3.6c1.1-1.5 2.2-2.6 3.5-3.3 1.2-.7 2.6-1 4.2-1 1.9 0 3.4.4 4.6 1.2 1.2.8 2 1.9 2.5 3.5 1.1-1.6 2.3-2.7 3.6-3.5 1.3-.8 2.8-1.2 4.4-1.2 1.6 0 3 .3 4.1.9 1.1.6 2 1.5 2.6 2.7.3.7.6 1.4.7 2.2.1.8.2 2.1.2 3.8v14.1h-6.6V44.8c0-2.8-.3-4.6-.9-5.5-.6-.9-1.6-1.4-3-1.4-1.7 0-2.9.6-3.7 1.9-.8 1.3-1.2 3.4-1.2 6.2v10.1H66V44.8c0-2.7-.3-4.5-.8-5.5-.5-.9-1.4-1.4-2.7-1.4-1.8 0-3 .6-3.8 1.9-.8 1.3-1.2 3.3-1.2 6.2v10.1zm57.7 0h-6.4l.1-3.3c-.9 1.4-2 2.5-3.3 3.2-1.3.7-2.8 1-4.6 1-3 0-5.5-1.1-7.3-3.4-1.9-2.3-2.8-5.2-2.8-8.9 0-3.9.9-6.9 2.7-9 1.8-2.2 4.4-3.2 7.6-3.2 1.7 0 3.2.4 4.5 1.1 1.3.8 2.4 1.9 3.2 3.4v-3.8h6.3v22.9zm-6.1-11.4c0-2.1-.5-3.7-1.5-4.9-1-1.2-2.4-1.8-4.2-1.8-1.8 0-3.2.6-4.3 1.8-1 1.2-1.5 2.8-1.5 4.9 0 2.1.5 3.7 1.5 4.8 1 1.1 2.4 1.7 4.2 1.7 1.8 0 3.3-.6 4.3-1.7 1-1.2 1.5-2.8 1.5-4.8zm15.4-5.6c.7-2.2 1.6-3.9 2.9-5 1.3-1.1 2.8-1.7 4.6-1.7.4 0 1.1.1 2.1.2.2 0 .3.1.4.1l-1 7.1c-.5-.2-1-.4-1.5-.5-.5-.1-1-.2-1.6-.2-2 0-3.5.5-4.4 1.5-.9 1-1.3 2.8-1.3 5.2v10.1h-6.6V33.3h6.5l-.1 5.8zm16.2 17V38.5h-3.2v-5.2h3.2v-7.6h6.6v7.6h3.2v5.2h-3.2v17.7h-6.6z"/></svg>