<svg xmlns="http://www.w3.org/2000/svg" viewBox="0 0 412.5 403.5"><g id="Objects"><path fill="#FFF" d="M208.9 12.5c-103.8 0-188 84.2-188 188 0 35 .7 51 17.4 79l-17.4 109L123.4 368c27.3 15.5 51.9 20.6 85.5 20.6 103.8 0 188-84.2 188-188s-84.2-188.1-188-188.1z"/><linearGradient id="SVGID_1_" gradientUnits="userSpaceOnUse" x1="266.23" y1="57.668" x2="135.257" y2="384.119"><stop offset="0" stop-color="#4bc25a"/><stop offset="1" stop-color="#368c41"/></linearGradient><path fill="url(#SVGID_1_)" d="M208.9 51.7C126.7 51.7 60 118.4 60 200.6c0 27.7 7.6 53.6 20.7 75.8l-11.3 63.5 66.2-9.7c21.6 12.2 46.6 19.2 73.2 19.2 82.2 0 148.9-66.6 148.9-148.9S291.1 51.7 208.9 51.7z"/><path fill="#FFF" d="M125.5 268.3c-2.5-6-3.8-11.7-3.8-17.2 0-1.2.1-2.2.3-2.7.3-.9 2.5-2.6 6.5-5s9.1-5.2 15.1-8.4l9-4.9c.6-.3 1.7-1.1 3.2-2.2 1.6-1.1 3-2 4.3-2.6 1.3-.6 2.4-.8 3.6-.8 2 0 4.7 1.8 8 5.5s6.5 7.4 9.7 11.1c3.2 3.7 5.7 5.6 7.5 5.6.8 0 1.7-.2 2.8-.6 1.1-.4 2-.8 2.6-1.1.7-.3 1.6-.9 2.9-1.6 1.3-.7 2-1.2 2.4-1.4 11.2-6.2 20.9-13.4 29-21.5 8.1-8.1 15.3-17.8 21.5-29 .2-.3.7-1.1 1.4-2.4.7-1.2 1.3-2.2 1.6-2.9.3-.7.7-1.6 1.1-2.6.4-1.1.6-2 .6-2.8 0-1.5-1.2-3.4-3.5-5.7-2.3-2.3-4.9-4.5-7.7-6.5s-5.3-4.3-7.7-6.7c-2.3-2.4-3.5-4.5-3.5-6.2 0-1.1.3-2.3.9-3.6.6-1.2 1.4-2.7 2.5-4.3 1.1-1.6 1.9-2.7 2.2-3.2.3-.7 1.2-2.3 2.5-4.8 1.4-2.6 2.8-5.1 4.3-7.7 1.5-2.6 3-5.3 4.5-8.1s2.9-5.1 4.3-6.9c1.3-1.8 2.2-2.8 2.8-3.1.6-.2 1.5-.3 2.7-.3 5.4 0 11.2 1.3 17.2 3.8 5.2 2.4 9.8 7.7 13.6 16.1 3.9 8.3 5.8 15.7 5.8 22.2 0 1.8-.1 3.7-.4 5.8-.3 2-.6 3.8-.8 5.2-.3 1.4-.8 3.3-1.5 5.6s-1.3 4-1.7 5c-.4 1-1.1 2.9-2.1 5.6-1 2.7-1.6 4.4-1.9 5.1-6.8 18.6-19.1 36.8-36.9 54.5-17.8 17.7-35.9 30-54.5 36.8-.7.2-2.4.8-5.1 1.9-2.7 1-4.6 1.7-5.6 2.1-1 .4-2.7 1-5 1.7s-4.2 1.2-5.6 1.5c-1.4.3-3.1.6-5.2.8-2 .3-4 .4-5.8.4-6.5 0-13.9-1.9-22.2-5.8-8.1-3.9-13.5-8.5-15.9-13.7z"/></g></svg>