<?xml version="1.0" encoding="utf-8"?>
<!-- Generator: Adobe Illustrator 18.0.0, SVG Export Plug-In . SVG Version: 6.00 Build 0)  -->
<!DOCTYPE svg PUBLIC "-//W3C//DTD SVG 1.1//EN" "http://www.w3.org/Graphics/SVG/1.1/DTD/svg11.dtd">
<svg version="1.1" id="Capa_1" xmlns="http://www.w3.org/2000/svg" xmlns:xlink="http://www.w3.org/1999/xlink" x="0px" y="0px"
	 viewBox="0 26.4 996 929.6" enable-background="new 0 26.4 996 929.6" xml:space="preserve">
<g>
	<g>
		
			<image overflow="visible" enable-background="new    " width="1992" height="1851" xlink:href="B9B0A444.png"  transform="matrix(0.5 0 0 0.5 0 30.5)">
		</image>
		
			<image overflow="visible" enable-background="new    " width="1791" height="1851" xlink:href="B9B0A443.png"  transform="matrix(0.5 0 0 0.5 0 30.5)">
		</image>
		
			<image overflow="visible" enable-background="new    " width="1565" height="1851" xlink:href="B9B0A44B.png"  transform="matrix(0.5 0 0 0.5 0 30.5)">
		</image>
		<g>
			
				<image overflow="visible" opacity="0.5" enable-background="new    " width="623" height="541" xlink:href="B9B0A44D.png"  transform="matrix(1.4942 0 0 1.4942 13.8563 103.4644)">
			</image>
			<g>
				<g>
					<g>
						<g>
							
								<image overflow="visible" enable-background="new    " width="34" height="29" xlink:href="B9B0A44F.png"  transform="matrix(0.5 0 0 0.5 85 219)">
							</image>
							<g>
								
									<image overflow="visible" enable-background="new    " width="151" height="75" xlink:href="B9B0A44C.png"  transform="matrix(0.5 0 0 0.5 164.5 610)">
								</image>
								
									<image overflow="visible" enable-background="new    " width="34" height="29" xlink:href="B9B0A446.png"  transform="matrix(0.5 0 0 0.5 229 608)">
								</image>
							</g>
							<g>
								
									<image overflow="visible" enable-background="new    " width="152" height="75" xlink:href="B9B0A441.png"  transform="matrix(0.5 0 0 0.5 44.5 841.5)">
								</image>
								
									<image overflow="visible" enable-background="new    " width="34" height="29" xlink:href="B9B0A442.png"  transform="matrix(0.5 0 0 0.5 109 839.5)">
								</image>
							</g>
							<g>
								
									<image overflow="visible" enable-background="new    " width="152" height="74" xlink:href="D687BE44.png"  transform="matrix(0.5 0 0 0.5 187 433.5)">
								</image>
								
									<image overflow="visible" enable-background="new    " width="34" height="28" xlink:href="D687BE43.png"  transform="matrix(0.5 0 0 0.5 251.5 431.5)">
								</image>
							</g>
							<g>
								
									<image overflow="visible" enable-background="new    " width="151" height="75" xlink:href="D687BE5C.png"  transform="matrix(0.5 0 0 0.5 477 228)">
								</image>
								
									<image overflow="visible" enable-background="new    " width="33" height="29" xlink:href="D687BE5F.png"  transform="matrix(0.5 0 0 0.5 541.5 226)">
								</image>
							</g>
							<g>
								
									<image overflow="visible" enable-background="new    " width="151" height="74" xlink:href="D687BE5D.png"  transform="matrix(0.5 0 0 0.5 477 768.5)">
								</image>
								
									<image overflow="visible" enable-background="new    " width="33" height="29" xlink:href="D687BE42.png"  transform="matrix(0.5 0 0 0.5 541.5 766.5)">
								</image>
							</g>
							<g>
								
									<image overflow="visible" enable-background="new    " width="152" height="74" xlink:href="D687BE45.png"  transform="matrix(0.5 0 0 0.5 830.5 414)">
								</image>
								
									<image overflow="visible" enable-background="new    " width="34" height="29" xlink:href="D687BE47.png"  transform="matrix(0.5 0 0 0.5 895 412)">
								</image>
							</g>
							<g>
								
									<image overflow="visible" enable-background="new    " width="151" height="75" xlink:href="D687BE40.png"  transform="matrix(0.5 0 0 0.5 50 125)">
								</image>
								
									<image overflow="visible" enable-background="new    " width="34" height="29" xlink:href="D687BE41.png"  transform="matrix(0.5 0 0 0.5 114.5 123)">
								</image>
							</g>
							
								<image overflow="visible" enable-background="new    " width="16" height="14" xlink:href="D687BE67.png"  transform="matrix(0.5 0 0 0.5 26.5 388.5)">
							</image>
							
								<image overflow="visible" enable-background="new    " width="16" height="14" xlink:href="D687BE61.png"  transform="matrix(0.5 0 0 0.5 298 116.5)">
							</image>
							
								<image overflow="visible" enable-background="new    " width="17" height="14" xlink:href="D687BE63.png"  transform="matrix(0.5 0 0 0.5 685.5 675)">
							</image>
							
								<image overflow="visible" enable-background="new    " width="16" height="14" xlink:href="D687BE6E.png"  transform="matrix(0.5 0 0 0.5 135.5 734)">
							</image>
							
								<image overflow="visible" enable-background="new    " width="17" height="14" xlink:href="D687BE6F.png"  transform="matrix(0.5 0 0 0.5 290 802)">
							</image>
							
								<image overflow="visible" enable-background="new    " width="16" height="14" xlink:href="D687BE62.png"  transform="matrix(0.5 0 0 0.5 721.5 385.5)">
							</image>
							
								<image overflow="visible" enable-background="new    " width="16" height="14" xlink:href="D687BE65.png"  transform="matrix(0.5 0 0 0.5 774.5 543.5)">
							</image>
							
								<image overflow="visible" enable-background="new    " width="17" height="14" xlink:href="D687BE66.png"  transform="matrix(0.5 0 0 0.5 89 531.5)">
							</image>
							
								<image overflow="visible" enable-background="new    " width="28" height="23" xlink:href="D687BE64.png"  transform="matrix(0.5 0 0 0.5 423.5 688)">
							</image>
							
								<image overflow="visible" enable-background="new    " width="28" height="24" xlink:href="D687BE5E.png"  transform="matrix(0.5 0 0 0.5 334.5 232)">
							</image>
							
								<image overflow="visible" enable-background="new    " width="16" height="14" xlink:href="D687BE86.png"  transform="matrix(0.5 0 0 0.5 227.5 351.5)">
							</image>
						</g>
					</g>
				</g>
			</g>
		</g>
	</g>
</g>
<g>
	
		<image overflow="visible" opacity="0.5" enable-background="new    " width="453" height="480" xlink:href="D687BEB9.png"  transform="matrix(1.823 0 0 1.823 66.3826 14.4721)">
	</image>
	<g>
		<g>
			<g>
				<g>
					
						<rect x="409.3" y="338.5" transform="matrix(0.5447 0.8386 -0.8386 0.5447 500.858 -196.2641)" fill="#F0EFE3" width="43.8" height="49.3"/>
				</g>
				
					<image overflow="visible" enable-background="new    " width="106" height="102" xlink:href="D687BEBA.png"  transform="matrix(0.6103 0 0 0.6103 399.5585 333.3236)">
				</image>
				
					<image overflow="visible" enable-background="new    " width="79" height="61" xlink:href="D687BEB8.png"  transform="matrix(0.6103 0 0 0.6103 416.0361 358.3452)">
				</image>
				
					<image overflow="visible" enable-background="new    " width="81" height="63" xlink:href="D687BEBE.png"  transform="matrix(0.6103 0 0 0.6103 398.9482 330.2722)">
				</image>
			</g>
			<g>
				<g>
					
						<rect x="518.1" y="505.7" transform="matrix(-0.5447 -0.8386 0.8386 -0.5447 389.3707 1272.1588)" fill="#F0EFE3" width="43.8" height="49.3"/>
				</g>
				
					<image overflow="visible" enable-background="new    " width="105" height="102" xlink:href="D687BEBB.png"  transform="matrix(0.6103 0 0 0.6103 506.968 498.0996)">
				</image>
				
					<image overflow="visible" enable-background="new    " width="79" height="61" xlink:href="D687BEB6.png"  transform="matrix(0.6103 0 0 0.6103 506.968 498.0996)">
				</image>
				
					<image overflow="visible" enable-background="new    " width="80" height="63" xlink:href="D687BEB7.png"  transform="matrix(0.6103 0 0 0.6103 524.6662 523.7314)">
				</image>
			</g>
			<g>
				<g>
					
						<rect x="655.2" y="273.1" transform="matrix(0.5447 0.8386 -0.8386 0.5447 575.9915 -445.9209)" fill="#F0EFE3" width="87" height="68.9"/>
				</g>
				
					<image overflow="visible" enable-background="new    " width="169" height="175" xlink:href="D687BE87.png"  transform="matrix(0.6103 0 0 0.6103 648.5533 256.4281)">
				</image>
				
					<image overflow="visible" enable-background="new    " width="116" height="94" xlink:href="D687BE89.png"  transform="matrix(0.6103 0 0 0.6103 680.8983 305.8609)">
				</image>
			</g>
			<g>
				<g>
					<g>
						<path fill="#F0EFE3" d="M333.6,609.1l-57-87.7c-2.2-3.5-1.3-8.1,2.2-10.3l26.5-17.1c3.5-2.2,8.1-1.3,10.3,2.2l57,87.7
							c2.2,3.5,1.3,8.1-2.2,10.3l-26.5,17.1C340.4,613.4,335.8,612.5,333.6,609.1z"/>
					</g>
					
						<image overflow="visible" enable-background="new    " width="146" height="172" xlink:href="D687BE95.png"  transform="matrix(0.6103 0 0 0.6103 284.8256 507.8641)">
					</image>
					
						<image overflow="visible" enable-background="new    " width="77" height="69" xlink:href="D687BE97.png"  transform="matrix(0.6103 0 0 0.6103 319.6116 564.6203)">
					</image>
				</g>
				
					<image overflow="visible" enable-background="new    " width="404" height="309" xlink:href="D687BE94.png"  transform="matrix(0.6103 0 0 0.6103 77.3298 524.952)">
				</image>
				
					<image overflow="visible" enable-background="new    " width="128" height="173" xlink:href="D687BEEB.png"  transform="matrix(0.6103 0 0 0.6103 257.9732 520.0698)">
				</image>
			</g>
			<g>
				<g>
					<g>
						<path fill="#F0EFE3" d="M739.2,382.6l-93.9-144.5c-11.2-17.1,0.5,31.4-16.6,42.6l-47.8,31.1c-16.2-4.8-34.4-2.6-49.7,7.3
							L322.1,454.7c-16.4,10.6-25.9,28.1-27.2,46.4c0.7,0.7,1.5,1.5,2,2.4l61,94.1c0.5,0.9,1.1,1.8,1.3,2.9
							c17.1,6.2,37.1,4.6,53.5-6l209-135.7c15.1-9.9,24.5-25.6,26.9-42.4l47.8-31.1C713.9,374.2,750.3,399.7,739.2,382.6z"/>
					</g>
					
						<image overflow="visible" enable-background="new    " width="717" height="577" xlink:href="D687BEED.png"  transform="matrix(0.6103 0 0 0.6103 304.3546 252.1562)">
					</image>
					
						<image overflow="visible" enable-background="new    " width="662" height="453" xlink:href="D687BEEF.png"  transform="matrix(0.6103 0 0 0.6103 337.92 327.8311)">
					</image>
				</g>
				
					<image overflow="visible" enable-background="new    " width="181" height="249" xlink:href="D687BEEC.png"  transform="matrix(0.6103 0 0 0.6103 518.5634 315.0152)">
				</image>
				
					<image overflow="visible" enable-background="new    " width="185" height="253" xlink:href="D687BEF4.png"  transform="matrix(0.6103 0 0 0.6103 314.7294 445.0051)">
				</image>
				
					<image overflow="visible" enable-background="new    " width="160" height="236" xlink:href="D687BEF5.png"  transform="matrix(0.6103 0 0 0.6103 341.5818 437.6818)">
				</image>
				
					<image overflow="visible" enable-background="new    " width="168" height="254" xlink:href="D687BEF7.png"  transform="matrix(0.6103 0 0 0.6103 639.3992 233.8477)">
				</image>
			</g>
			<g>
				<g>
					<path fill="#E2E2E2" d="M763.5,281.7l-14.8-22.8c-1.8-2.9-1.1-7,1.8-8.8l42-27.2c2.9-1.8,7-1.1,8.8,1.8l14.8,22.8
						c1.8,2.9,1.1,7-1.8,8.8l-42,27.2C769.4,285.4,765.5,284.6,763.5,281.7z"/>
					
						<image overflow="visible" enable-background="new    " width="85" height="84" xlink:href="D687BED0.png"  transform="matrix(0.6103 0 0 0.6103 760.2349 228.3552)">
					</image>
					
						<image overflow="visible" enable-background="new    " width="68" height="55" xlink:href="D687BED7.png"  transform="matrix(0.6103 0 0 0.6103 770.6097 245.4431)">
					</image>
				</g>
				<g>
					<path fill="#E2E2E2" d="M700.7,123.5c-28.7,55.2-27.6,123.9,8.8,179.8c36.4,55.9,98.7,84.8,160.7,81.1L700.7,123.5z"/>
					
						<image overflow="visible" enable-background="new    " width="295" height="387" xlink:href="D687BED1.png"  transform="matrix(0.6103 0 0 0.6103 690.6628 149.0186)">
					</image>
					
						<image overflow="visible" enable-background="new    " width="238" height="100" xlink:href="D687BED3.png"  transform="matrix(0.6103 0 0 0.6103 724.8386 324.1694)">
					</image>
				</g>
				
					<image overflow="visible" enable-background="new    " width="285" height="429" xlink:href="D687BEDE.png"  transform="matrix(0.6103 0 0 0.6103 696.7656 123.3868)">
				</image>
			</g>
			
				<image overflow="visible" enable-background="new    " width="538" height="608" xlink:href="D687BEDF.png"  transform="matrix(0.6103 0 0 0.6103 474.6231 495.0482)">
			</image>
			<g>
				
					<rect x="479.3" y="594.9" transform="matrix(0.5447 0.8386 -0.8386 0.5447 861.0952 -225.699)" fill="#80A3C1" width="318.3" height="170.6"/>
			</g>
			<g>
				
					<rect x="523.8" y="619.4" transform="matrix(0.5447 0.8386 -0.8386 0.5447 888.8726 -227.757)" fill="#B4C8DB" width="260.9" height="170.6"/>
			</g>
			<g>
				
					<rect x="575.7" y="647.6" transform="matrix(0.5447 0.8386 -0.8386 0.5447 920.8082 -230.3249)" fill="#80A3C1" width="193.6" height="170.6"/>
			</g>
			<g>
				
					<rect x="626" y="673.9" transform="matrix(0.5447 0.8386 -0.8386 0.5447 950.696 -232.7028)" fill="#B4C8DB" width="127.3" height="170.6"/>
			</g>
			<g>
				
					<rect x="678.9" y="702.6" transform="matrix(0.5447 0.8386 -0.8386 0.5447 983.2736 -235.2574)" fill="#80A3C1" width="58.8" height="170.6"/>
			</g>
			
				<image overflow="visible" enable-background="new    " width="488" height="501" xlink:href="D687BED2.png"  transform="matrix(0.6103 0 0 0.6103 480.1157 553.025)">
			</image>
			
				<image overflow="visible" enable-background="new    " width="377" height="402" xlink:href="D687BED5.png"  transform="matrix(0.6103 0 0 0.6103 480.1157 589.0316)">
			</image>
			
				<image overflow="visible" enable-background="new    " width="538" height="608" xlink:href="D687BED6.png"  transform="matrix(0.6103 0 0 0.6103 170.0926 26.352)">
			</image>
			<g>
				
					<rect x="174.7" y="126.1" transform="matrix(0.5447 0.8386 -0.8386 0.5447 329.3069 -183.7402)" fill="#80A3C1" width="318.3" height="170.6"/>
			</g>
			<g>
				
					<rect x="219.3" y="150.6" transform="matrix(0.5447 0.8386 -0.8386 0.5447 357.0799 -185.856)" fill="#B4C8DB" width="260.9" height="170.6"/>
			</g>
			<g>
				
					<rect x="271.2" y="178.8" transform="matrix(0.5447 0.8386 -0.8386 0.5447 389.02 -188.3657)" fill="#80A3C1" width="193.6" height="170.6"/>
			</g>
			<g>
				
					<rect x="321.6" y="205.2" transform="matrix(0.5447 0.8386 -0.8386 0.5447 419.0579 -190.7846)" fill="#B4C8DB" width="127.3" height="170.6"/>
			</g>
			<g>
				
					<rect x="374.4" y="233.8" transform="matrix(0.5447 0.8386 -0.8386 0.5447 451.4807 -193.3563)" fill="#80A3C1" width="58.8" height="170.6"/>
			</g>
			
				<image overflow="visible" enable-background="new    " width="91" height="75" xlink:href="D687BED4.png"  transform="matrix(0.6103 0 0 0.6103 316.5602 341.8676)">
			</image>
			
				<image overflow="visible" enable-background="new    " width="433" height="468" xlink:href="D687BF3B.png"  transform="matrix(0.6103 0 0 0.6103 175.5852 106.2989)">
			</image>
		</g>
	</g>
</g>
</svg>
