<?xml version="1.0" encoding="utf-8"?>
<!-- Generator: Adobe Illustrator 18.0.0, SVG Export Plug-In . SVG Version: 6.00 Build 0)  -->
<!DOCTYPE svg PUBLIC "-//W3C//DTD SVG 1.1//EN" "http://www.w3.org/Graphics/SVG/1.1/DTD/svg11.dtd">
<svg version="1.1" id="Capa_1" xmlns="http://www.w3.org/2000/svg" xmlns:xlink="http://www.w3.org/1999/xlink" x="0px" y="0px"
	 viewBox="0 136.7 612 571.3" enable-background="new 0 136.7 612 571.3" xml:space="preserve">
<g>
	<g>
		
			<image overflow="visible" enable-background="new    " width="1992" height="1851" xlink:href="B9B0A444.png"  transform="matrix(0.3072 0 0 0.3072 0 139.3193)">
		</image>
		
			<image overflow="visible" enable-background="new    " width="1791" height="1851" xlink:href="B9B0A443.png"  transform="matrix(0.3072 0 0 0.3072 0 139.3193)">
		</image>
		
			<image overflow="visible" enable-background="new    " width="1565" height="1851" xlink:href="B9B0A44B.png"  transform="matrix(0.3072 0 0 0.3072 0 139.3193)">
		</image>
		<g>
			
				<image overflow="visible" opacity="0.5" enable-background="new    " width="623" height="541" xlink:href="B9B0A44D.png"  transform="matrix(0.9181 0 0 0.9181 8.5141 184.1528)">
			</image>
			<g>
				<g>
					<g>
						<g>
							
								<image overflow="visible" enable-background="new    " width="34" height="29" xlink:href="B9B0A44F.png"  transform="matrix(0.3072 0 0 0.3072 52.2289 255.1446)">
							</image>
							<g>
								
									<image overflow="visible" enable-background="new    " width="151" height="75" xlink:href="B9B0A44C.png"  transform="matrix(0.3072 0 0 0.3072 101.0783 495.3976)">
								</image>
								
									<image overflow="visible" enable-background="new    " width="34" height="29" xlink:href="B9B0A446.png"  transform="matrix(0.3072 0 0 0.3072 140.7108 494.1687)">
								</image>
							</g>
							<g>
								
									<image overflow="visible" enable-background="new    " width="152" height="75" xlink:href="B9B0A441.png"  transform="matrix(0.3072 0 0 0.3072 27.3434 637.6446)">
								</image>
								
									<image overflow="visible" enable-background="new    " width="34" height="29" xlink:href="B9B0A442.png"  transform="matrix(0.3072 0 0 0.3072 66.9759 636.4157)">
								</image>
							</g>
							<g>
								
									<image overflow="visible" enable-background="new    " width="152" height="74" xlink:href="D687BE44.png"  transform="matrix(0.3072 0 0 0.3072 114.9036 386.9458)">
								</image>
								
									<image overflow="visible" enable-background="new    " width="34" height="28" xlink:href="D687BE43.png"  transform="matrix(0.3072 0 0 0.3072 154.5361 385.7169)">
								</image>
							</g>
							<g>
								
									<image overflow="visible" enable-background="new    " width="151" height="75" xlink:href="D687BE5C.png"  transform="matrix(0.3072 0 0 0.3072 293.0964 260.6747)">
								</image>
								
									<image overflow="visible" enable-background="new    " width="33" height="29" xlink:href="D687BE5F.png"  transform="matrix(0.3072 0 0 0.3072 332.7289 259.4458)">
								</image>
							</g>
							<g>
								
									<image overflow="visible" enable-background="new    " width="151" height="74" xlink:href="D687BE5D.png"  transform="matrix(0.3072 0 0 0.3072 293.0964 592.7892)">
								</image>
								
									<image overflow="visible" enable-background="new    " width="33" height="29" xlink:href="D687BE42.png"  transform="matrix(0.3072 0 0 0.3072 332.7289 591.5602)">
								</image>
							</g>
							<g>
								
									<image overflow="visible" enable-background="new    " width="152" height="74" xlink:href="D687BE45.png"  transform="matrix(0.3072 0 0 0.3072 510.3073 374.9639)">
								</image>
								
									<image overflow="visible" enable-background="new    " width="34" height="29" xlink:href="D687BE47.png"  transform="matrix(0.3072 0 0 0.3072 549.9398 373.735)">
								</image>
							</g>
							<g>
								
									<image overflow="visible" enable-background="new    " width="151" height="75" xlink:href="D687BE40.png"  transform="matrix(0.3072 0 0 0.3072 30.7229 197.3856)">
								</image>
								
									<image overflow="visible" enable-background="new    " width="34" height="29" xlink:href="D687BE41.png"  transform="matrix(0.3072 0 0 0.3072 70.3554 196.1566)">
								</image>
							</g>
							
								<image overflow="visible" enable-background="new    " width="16" height="14" xlink:href="D687BE67.png"  transform="matrix(0.3072 0 0 0.3072 16.2831 359.2952)">
							</image>
							
								<image overflow="visible" enable-background="new    " width="16" height="14" xlink:href="D687BE61.png"  transform="matrix(0.3072 0 0 0.3072 183.1084 192.1627)">
							</image>
							
								<image overflow="visible" enable-background="new    " width="17" height="14" xlink:href="D687BE63.png"  transform="matrix(0.3072 0 0 0.3072 421.2108 535.3374)">
							</image>
							
								<image overflow="visible" enable-background="new    " width="16" height="14" xlink:href="D687BE6E.png"  transform="matrix(0.3072 0 0 0.3072 83.259 571.5904)">
							</image>
							
								<image overflow="visible" enable-background="new    " width="17" height="14" xlink:href="D687BE6F.png"  transform="matrix(0.3072 0 0 0.3072 178.1928 613.3735)">
							</image>
							
								<image overflow="visible" enable-background="new    " width="16" height="14" xlink:href="D687BE62.png"  transform="matrix(0.3072 0 0 0.3072 443.3313 357.4518)">
							</image>
							
								<image overflow="visible" enable-background="new    " width="16" height="14" xlink:href="D687BE65.png"  transform="matrix(0.3072 0 0 0.3072 475.8976 454.5362)">
							</image>
							
								<image overflow="visible" enable-background="new    " width="17" height="14" xlink:href="D687BE66.png"  transform="matrix(0.3072 0 0 0.3072 54.6867 447.1627)">
							</image>
							
								<image overflow="visible" enable-background="new    " width="28" height="23" xlink:href="D687BE64.png"  transform="matrix(0.3072 0 0 0.3072 260.2229 543.3253)">
							</image>
							
								<image overflow="visible" enable-background="new    " width="28" height="24" xlink:href="D687BE5E.png"  transform="matrix(0.3072 0 0 0.3072 205.5361 263.1325)">
							</image>
							
								<image overflow="visible" enable-background="new    " width="16" height="14" xlink:href="D687BE86.png"  transform="matrix(0.3072 0 0 0.3072 139.7892 336.5603)">
							</image>
						</g>
					</g>
				</g>
			</g>
		</g>
	</g>
</g>
<g>
	
		<image overflow="visible" opacity="0.5" enable-background="new    " width="448" height="475" xlink:href="D687BEB9.png"  transform="matrix(1.1323 0 0 1.1323 40.8735 129.3914)">
	</image>
	<g>
		<g>
			<g>
				<g>
					
						<rect x="251.5" y="328.6" transform="matrix(-0.5447 -0.8386 0.8386 -0.5447 121.0249 753.1391)" fill="#F0EFE3" width="26.9" height="30.3"/>
				</g>
				
					<image overflow="visible" enable-background="new    " width="108" height="103" xlink:href="D687BEBA.png"  transform="matrix(0.3696 0 0 0.3696 245.4267 325.4805)">
				</image>
				
					<image overflow="visible" enable-background="new    " width="80" height="62" xlink:href="D687BEB8.png"  transform="matrix(0.3698 0 0 0.3698 255.657 340.74)">
				</image>
				
					<image overflow="visible" enable-background="new    " width="84" height="64" xlink:href="D687BEBE.png"  transform="matrix(0.3644 0 0 0.3644 245.0199 323.6686)">
				</image>
			</g>
			<g>
				<g>
					
						<rect x="318.3" y="431.4" transform="matrix(0.5447 0.8386 -0.8386 0.5447 525.5133 -74.9642)" fill="#F0EFE3" width="26.9" height="30.3"/>
				</g>
				
					<image overflow="visible" enable-background="new    " width="108" height="103" xlink:href="D687BEBB.png"  transform="matrix(0.3678 0 0 0.3678 311.3353 426.8215)">
				</image>
				
					<image overflow="visible" enable-background="new    " width="82" height="62" xlink:href="D687BEB6.png"  transform="matrix(0.3641 0 0 0.3641 311.3953 426.7903)">
				</image>
				
					<image overflow="visible" enable-background="new    " width="82" height="66" xlink:href="D687BEB7.png"  transform="matrix(0.3628 0 0 0.3628 322.5117 442.2303)">
				</image>
			</g>
			<g>
				<g>
					
						<rect x="402.6" y="288.4" transform="matrix(-0.5447 -0.8386 0.8386 -0.5447 403.5534 838.175)" fill="#F0EFE3" width="53.5" height="42.3"/>
				</g>
				
					<image overflow="visible" enable-background="new    " width="170" height="177" xlink:href="D687BE87.png"  transform="matrix(0.3717 0 0 0.3717 398.5984 278.0562)">
				</image>
				
					<image overflow="visible" enable-background="new    " width="118" height="97" xlink:href="D687BE89.png"  transform="matrix(0.3665 0 0 0.3665 418.5075 308.3648)">
				</image>
			</g>
			<g>
				<g>
					<g>
						<path fill="#F0EFE3" d="M205,494.8L170,441c-1.4-2.2-0.8-5,1.4-6.3l16.3-10.5c2.2-1.4,5-0.8,6.3,1.4l35,53.9
							c1.4,2.2,0.8,5-1.4,6.3l-16.3,10.5C209.2,497.5,206.3,496.9,205,494.8z"/>
					</g>
					
						<image overflow="visible" enable-background="new    " width="148" height="174" xlink:href="D687BE95.png"  transform="matrix(0.3704 0 0 0.3704 174.9808 432.6671)">
					</image>
					
						<image overflow="visible" enable-background="new    " width="79" height="70" xlink:href="D687BE97.png"  transform="matrix(0.3673 0 0 0.3673 196.3158 467.5946)">
					</image>
				</g>
				
					<image overflow="visible" enable-background="new    " width="405" height="311" xlink:href="D687BE94.png"  transform="matrix(0.3735 0 0 0.3735 47.6274 442.9938)">
				</image>
				
					<image overflow="visible" enable-background="new    " width="131" height="174" xlink:href="D687BEEB.png"  transform="matrix(0.3705 0 0 0.3705 158.2439 440.3406)">
				</image>
			</g>
			<g>
				<g>
					<g>
						<path fill="#F0EFE3" d="M454.2,355.7l-57.7-88.8c-6.9-10.5,0.3,19.3-10.2,26.2l-29.4,19.1c-10-2.9-21.1-1.6-30.5,4.5
							L197.9,400c-10.1,6.5-15.9,17.3-16.7,28.5c0.4,0.4,0.9,0.9,1.2,1.5l37.5,57.8c0.3,0.6,0.7,1.1,0.8,1.8
							c10.5,3.8,22.8,2.8,32.9-3.7L382,402.5c9.3-6.1,15.1-15.7,16.5-26.1l29.4-19.1C438.7,350.5,461,366.2,454.2,355.7z"/>
					</g>
					
						<image overflow="visible" enable-background="new    " width="718" height="579" xlink:href="D687BEED.png"  transform="matrix(0.3742 0 0 0.3742 187.1224 275.382)">
					</image>
					
						<image overflow="visible" enable-background="new    " width="664" height="456" xlink:href="D687BEEF.png"  transform="matrix(0.3734 0 0 0.3734 207.7798 321.8094)">
					</image>
				</g>
				
					<image overflow="visible" enable-background="new    " width="184" height="249" xlink:href="D687BEEC.png"  transform="matrix(0.3729 0 0 0.3729 318.2705 314.4093)">
				</image>
				
					<image overflow="visible" enable-background="new    " width="187" height="254" xlink:href="D687BEF4.png"  transform="matrix(0.3726 0 0 0.3726 193.2341 394.1281)">
				</image>
				
					<image overflow="visible" enable-background="new    " width="162" height="238" xlink:href="D687BEF5.png"  transform="matrix(0.3714 0 0 0.3714 209.8057 389.571)">
				</image>
				
					<image overflow="visible" enable-background="new    " width="169" height="256" xlink:href="D687BEF7.png"  transform="matrix(0.3723 0 0 0.3723 392.9257 264.2403)">
				</image>
			</g>
			<g>
				<g>
					<path fill="#E2E2E2" d="M469.1,293.7l-9.1-14c-1.1-1.8-0.7-4.3,1.1-5.4l25.8-16.7c1.8-1.1,4.3-0.7,5.4,1.1l9.1,14
						c1.1,1.8,0.7,4.3-1.1,5.4l-25.8,16.7C472.8,295.9,470.4,295.5,469.1,293.7z"/>
					
						<image overflow="visible" enable-background="new    " width="87" height="85" xlink:href="D687BED0.png"  transform="matrix(0.3684 0 0 0.3684 467.0426 260.9842)">
					</image>
					
						<image overflow="visible" enable-background="new    " width="70" height="57" xlink:href="D687BED7.png"  transform="matrix(0.3633 0 0 0.3633 473.5412 271.3508)">
					</image>
				</g>
				<g>
					<path fill="#E2E2E2" d="M430.6,196.5c-17.6,33.9-17,76.1,5.4,110.5s60.6,52.1,98.7,49.8L430.6,196.5z"/>
					
						<image overflow="visible" enable-background="new    " width="297" height="388" xlink:href="D687BED1.png"  transform="matrix(0.3735 0 0 0.3735 424.2371 212.2556)">
					</image>
					
						<image overflow="visible" enable-background="new    " width="241" height="102" xlink:href="D687BED3.png"  transform="matrix(0.3699 0 0 0.3699 445.4318 319.6506)">
					</image>
				</g>
				
					<image overflow="visible" enable-background="new    " width="287" height="431" xlink:href="D687BEDE.png"  transform="matrix(0.373 0 0 0.373 428.0463 196.4521)">
				</image>
			</g>
			
				<image overflow="visible" enable-background="new    " width="539" height="610" xlink:href="D687BEDF.png"  transform="matrix(0.374 0 0 0.374 291.7166 424.6932)">
			</image>
			<g>
				
					<rect x="294.5" y="486.1" transform="matrix(-0.5447 -0.8386 0.8386 -0.5447 154.3556 1160.8768)" fill="#80A3C1" width="195.6" height="104.8"/>
			</g>
			<g>
				
					<rect x="321.9" y="501.2" transform="matrix(-0.5447 -0.8386 0.8386 -0.5447 156.7445 1192.3276)" fill="#B4C8DB" width="160.3" height="104.8"/>
			</g>
			<g>
				
					<rect x="353.8" y="518.5" transform="matrix(-0.5447 -0.8386 0.8386 -0.5447 159.5674 1228.3892)" fill="#80A3C1" width="119" height="104.8"/>
			</g>
			<g>
				
					<rect x="384.7" y="534.6" transform="matrix(-0.5447 -0.8386 0.8386 -0.5447 162.3008 1262.2301)" fill="#B4C8DB" width="78.2" height="104.8"/>
			</g>
			<g>
				
					<rect x="417.2" y="552.3" transform="matrix(-0.5447 -0.8386 0.8386 -0.5447 165.2218 1299.1082)" fill="#80A3C1" width="36.1" height="104.8"/>
			</g>
			
				<image overflow="visible" enable-background="new    " width="488" height="502" xlink:href="D687BED2.png"  transform="matrix(0.3746 0 0 0.3746 295.1045 460.2978)">
			</image>
			
				<image overflow="visible" enable-background="new    " width="379" height="403" xlink:href="D687BED5.png"  transform="matrix(0.3736 0 0 0.3736 294.9054 482.6125)">
			</image>
			
				<image overflow="visible" enable-background="new    " width="539" height="610" xlink:href="D687BED6.png"  transform="matrix(0.374 0 0 0.374 104.5955 136.6991)">
			</image>
			<g>
				
					<rect x="107.4" y="198" transform="matrix(-0.5447 -0.8386 0.8386 -0.5447 106.8602 558.9341)" fill="#80A3C1" width="195.6" height="104.8"/>
			</g>
			<g>
				
					<rect x="134.8" y="213.1" transform="matrix(-0.5447 -0.8386 0.8386 -0.5447 109.2832 590.4355)" fill="#B4C8DB" width="160.3" height="104.8"/>
			</g>
			<g>
				
					<rect x="166.6" y="230.4" transform="matrix(-0.5447 -0.8386 0.8386 -0.5447 112.0803 626.5545)" fill="#80A3C1" width="119" height="104.8"/>
			</g>
			<g>
				
					<rect x="197.6" y="246.7" transform="matrix(-0.5447 -0.8386 0.8386 -0.5447 114.8782 660.55)" fill="#B4C8DB" width="78.2" height="104.8"/>
			</g>
			<g>
				
					<rect x="230.1" y="264.2" transform="matrix(-0.5447 -0.8386 0.8386 -0.5447 117.7602 697.2159)" fill="#80A3C1" width="36.1" height="104.8"/>
			</g>
			
				<image overflow="visible" enable-background="new    " width="93" height="77" xlink:href="D687BED4.png"  transform="matrix(0.3663 0 0 0.3663 194.5446 330.6032)">
			</image>
			
				<image overflow="visible" enable-background="new    " width="434" height="469" xlink:href="D687BF3B.png"  transform="matrix(0.3742 0 0 0.3742 107.8822 185.9015)">
			</image>
		</g>
	</g>
</g>
</svg>
